<svg width="35" height="35" viewBox="0 0 35 35" fill="none" xmlns="http://www.w3.org/2000/svg">
<path d="M18.439 22.3644L18.4394 22.3641L25.3581 15.5127L25.3583 15.5126C25.8815 14.9941 25.8805 14.1509 25.3557 13.6337L25.3555 13.6335C24.8356 13.1213 23.9975 13.1228 23.4792 13.636L23.4792 13.636L17.5 19.557L11.5208 13.6358L11.5207 13.6357C11.0024 13.1226 10.1647 13.1211 9.64468 13.6332L9.64444 13.6334C9.38298 13.8912 9.25 14.2327 9.25 14.5743C9.25 14.9147 9.38207 15.2551 9.64189 15.5125L9.64204 15.5127L16.56 22.3635C16.8109 22.6125 17.1496 22.75 17.5 22.75C17.8512 22.75 18.189 22.6117 18.439 22.3644Z" fill="#007DB5" stroke="#007DB5" stroke-width="1.5"/>
</svg>
