<svg width="26" height="21" viewBox="0 0 26 21" fill="none" xmlns="http://www.w3.org/2000/svg">
<path d="M6.42383 0L8.61121 2.0824L8.58635 0.557263C7.63683 0.298184 6.84142 0.102654 6.42383 0Z" fill="#88BF57"/>
<path d="M13.6957 6.95045L14.8639 8.06498C15.5006 7.3617 15.8364 6.44378 15.8012 5.50287C15.766 4.56196 15.3625 3.67078 14.675 3.0154C14.3586 2.74314 14.0035 2.51755 13.6211 2.3457L13.6957 6.95045Z" fill="#88BF57"/>
<path d="M8.78498 2.35629L10.7735 4.27738L10.7288 1.34442C10.0527 1.12445 9.36165 0.919142 8.74023 0.743164L8.76509 2.34652L8.78498 2.35629Z" fill="#88BF57"/>
<path d="M11.1914 4.60904L13.3788 6.69144L13.3042 2.18446C12.7176 1.92049 12.0117 1.65652 11.2859 1.41211L11.1964 4.64814L11.1914 4.60904Z" fill="#88BF57"/>
<path d="M8.60537 2.62012L6.85547 2.64945C7.06924 3.30936 7.31283 4.02794 7.57631 4.73674L10.7729 4.68785L8.60537 2.62012Z" fill="#88BF57"/>
<path d="M6.17383 0.234375C6.28817 0.635213 6.50691 1.39289 6.80021 2.29722H8.29161L6.17383 0.234375Z" fill="#88BF57"/>
<path d="M14.6064 8.30983L13.4232 7.20508L8.74023 7.2784C8.93134 7.65543 9.17754 8.00293 9.47102 8.30983C10.1616 8.9614 11.0816 9.32523 12.0387 9.32523C12.9958 9.32523 13.9158 8.9614 14.6064 8.30983Z" fill="#88BF57"/>
<path d="M11.0456 4.82031L7.60547 4.88875C7.89878 5.65132 8.21197 6.38456 8.52019 7.00048L13.233 6.92716L11.0456 4.82031Z" fill="#88BF57"/>
<path d="M18.9852 20.9998C22.8593 20.9998 25.9998 17.9117 25.9998 14.1024C25.9998 10.2931 22.8593 7.20508 18.9852 7.20508C15.1112 7.20508 11.9707 10.2931 11.9707 14.1024C11.9707 17.9117 15.1112 20.9998 18.9852 20.9998Z" fill="#4E55A2"/>
<path d="M0 13.9117L3.00765 13.4766L1.76482 12.5674C0.994264 13.1442 0.333078 13.6428 0 13.9068V13.9117Z" fill="#88BF57"/>
<path d="M10.0326 12.4703L11.6434 12.221C11.4661 11.2952 10.9313 10.4727 10.151 9.9259C9.37064 9.37915 8.4054 9.15058 7.4575 9.28808C7.04633 9.36961 6.64944 9.50958 6.2793 9.70359L10.0326 12.4459V12.4703Z" fill="#88BF57"/>
<path d="M3.3348 13.5014L6.1088 13.1006L3.72754 11.3555C3.13595 11.7514 2.5543 12.162 2.02734 12.5433L3.3348 13.521V13.5014Z" fill="#88BF57"/>
<path d="M6.62184 12.9986L9.63446 12.5587L5.96563 9.875C5.39393 10.1732 4.75263 10.5594 4.11133 10.9797L6.66659 13.0182L6.62184 12.9986Z" fill="#88BF57"/>
<path d="M3.44046 13.8052L2.39648 15.1885C3.05767 15.4232 3.78845 15.6774 4.51924 15.8973L6.42822 13.375L3.44046 13.8052Z" fill="#88BF57"/>
<path d="M0.0390625 14.2495C0.426825 14.4059 1.17749 14.6943 2.08725 15.017L2.98208 13.8193L0.0390625 14.2495Z" fill="#88BF57"/>
<path d="M11.6926 12.5928L10.0819 12.8225L7.29297 16.5132C7.70524 16.5938 8.12722 16.6152 8.54574 16.5767C9.49131 16.4394 10.3464 15.9483 10.9327 15.2061C11.519 14.4638 11.7913 13.5276 11.6926 12.5928Z" fill="#88BF57"/>
<path d="M6.70159 13.2378L4.64844 15.9508C5.44385 16.1854 6.22435 16.3907 6.90542 16.5227L9.71918 12.7979L6.70159 13.2378Z" fill="#88BF57"/>
</svg>
