<svg width="105" height="130" viewBox="0 0 105 130" fill="none" xmlns="http://www.w3.org/2000/svg">
<path d="M105 81.6338C104.996 91.6777 102.144 101.522 96.7639 110.065C91.3835 118.607 83.6872 125.51 74.537 130H20.8758C20.1871 128.82 19.5255 127.6 18.9853 126.367C17.2413 122.073 15.8857 117.637 14.9344 113.109C14.5833 109.238 14.5833 105.591 14.5833 104.358V104.173C14.5799 94.3671 17.3571 84.7541 22.604 76.4107C27.8508 68.0673 35.3599 61.3231 44.2901 56.9336C44.4862 56.8872 44.6691 56.7984 44.8256 56.6735C44.9821 56.5487 45.1082 56.391 45.1945 56.2121C45.2808 56.0331 45.3252 55.8375 45.3244 55.6395C45.3236 55.4415 45.2777 55.2462 45.19 55.068C45.1023 54.8897 44.9751 54.7329 44.8177 54.6093C44.6602 54.4856 44.4765 54.3981 44.2802 54.3532C44.0838 54.3083 43.8796 54.3072 43.6827 54.35C43.4859 54.3927 43.3012 54.4781 43.1424 54.6001C33.7577 59.2049 25.8654 66.2862 20.351 75.0495C14.8366 83.8129 11.9182 93.9116 11.9232 104.213V104.398C11.9232 105.724 12.1933 109.702 12.3148 113.918C12.3148 114.262 12.3148 114.342 12.3148 114.514C11.7534 115.139 11.0695 115.647 10.3039 116.007C9.53835 116.367 8.70676 116.572 7.8588 116.609C7.71057 116.622 7.56143 116.622 7.41319 116.609C5.93266 116.616 4.49095 116.144 3.31003 115.268C2.12911 114.391 1.27447 113.157 0.877701 111.757C0.796682 111.319 0.715664 110.895 0.648148 110.431C0.322591 108.482 0.106216 106.516 0 104.544C0 103.603 0 102.661 0 101.707C0 78.5446 12.3823 57.9544 33.2311 50.2779C34.1493 49.9067 34.9055 49.7873 35.6887 49.4294C40.3337 47.308 46.005 43.4896 46.005 38.1466C46.0022 37.2562 45.9117 36.3682 45.735 35.4949C45.6404 35.0839 45.5324 34.6729 45.4109 34.2751C44.8931 32.1958 44.6212 30.0649 44.6007 27.9244C44.6007 27.7653 44.6007 27.6195 44.6007 27.4604C44.5634 22.4427 45.8373 17.4995 48.3006 13.1031C50.764 8.70678 54.3345 5.00417 58.6709 2.34916L58.914 2.20332L59.8187 1.67299L59.9402 1.6067C62.3959 0.29753 65.2048 -0.231356 67.9795 0.0929695C70.7543 0.417295 73.3582 1.57886 75.4322 3.41749C77.5063 5.25612 78.9483 7.68125 79.5595 10.3585C80.1707 13.0357 79.9209 15.8332 78.8445 18.3652C78.5109 18.9166 78.2219 19.4929 77.9803 20.0888C77.1608 22.0374 76.7526 24.129 76.7804 26.237C76.8083 28.3451 77.2716 30.4256 78.1424 32.3527C79.1973 34.6797 80.815 36.7187 82.8549 38.2924L83.2735 38.6106C89.6334 43.3672 94.8609 49.4277 98.5921 56.3702C102.323 63.3127 104.469 70.9702 104.878 78.8097C104.973 79.7511 105 80.6924 105 81.6338Z" fill="white"/>
<path d="M66.1513 120.176L60.1289 112.871H72.1737L66.1513 120.176Z" fill="#4F95BD"/>
<path d="M78.3173 120.176L72.2949 112.871H84.3397L78.3173 120.176Z" fill="#4F95BD"/>
<path d="M60.9501 73.9953L54.9277 66.6768H66.986L60.9501 73.9953Z" fill="#4F95BD"/>
<path d="M72.9804 73.9953L66.958 66.6768H79.0028L72.9804 73.9953Z" fill="#4F95BD"/>
<path d="M60.9501 92.0022L54.9277 84.6836H66.986L60.9501 92.0022Z" fill="#4F95BD"/>
<path d="M72.9804 92.0022L66.958 84.6836H79.0028L72.9804 92.0022Z" fill="#4F95BD"/>
<path d="M42.954 83.0002L36.9316 75.6816H48.9764L42.954 83.0002Z" fill="#4F95BD"/>
<path d="M55.12 83.0002L49.0977 75.6816H61.1424L55.12 83.0002Z" fill="#4F95BD"/>
<path d="M93.1581 83.0002L87.1357 75.6816H99.1805L93.1581 83.0002Z" fill="#4F95BD"/>
<path d="M67.1376 83.0002L61.1152 75.6816H73.16L67.1376 83.0002Z" fill="#4F95BD"/>
<path d="M66.8134 64.9953L60.791 57.6768H72.8358L66.8134 64.9953Z" fill="#4F95BD"/>
<path d="M78.8437 64.9953L72.8213 57.6768H84.8661L78.8437 64.9953Z" fill="#4F95BD"/>
<path d="M67.2851 100.87L61.2627 93.5645H73.3074L67.2851 100.87Z" fill="#4F95BD"/>
<path d="M79.3153 100.87L73.293 93.5645H85.3377L79.3153 100.87Z" fill="#4F95BD"/>
<path d="M91.4822 100.87L85.4463 93.5645H97.5045L91.4822 100.87Z" fill="#4F95BD"/>
<path d="M55.5925 100.87L49.5566 93.5645H61.6149L55.5925 100.87Z" fill="#4F95BD"/>
<path d="M60.7226 110.006L54.7002 102.688H66.7449L60.7226 110.006Z" fill="#4F95BD"/>
<path d="M72.7421 110.006L66.7197 102.688H78.778L72.7421 110.006Z" fill="#4F95BD"/>
<path d="M84.9081 110.006L78.8857 102.688H90.9305L84.9081 110.006Z" fill="#4F95BD"/>
<path d="M49.0195 110.006L42.9971 102.688H55.0418L49.0195 110.006Z" fill="#4F95BD"/>
<path d="M78.0077 5.73152H77.373C78.677 7.54506 79.4964 9.65108 79.7559 11.8564C80.0154 14.0617 79.7068 16.2957 78.8584 18.3534C79.9153 16.5225 81.34 14.9215 83.046 13.6475C84.7521 12.3735 86.7039 11.4531 88.7831 10.942C87.5183 9.31605 85.8873 7.99955 84.018 7.0956C82.1486 6.19166 80.0915 5.72478 78.0077 5.73152Z" fill="white"/>
<path d="M72.9733 11.5089C72.8303 12.2454 72.4492 12.9236 71.8811 13.4528C71.3131 13.982 70.5851 14.3369 69.7946 14.4701C69.0041 14.6032 68.1888 14.5083 67.4578 14.198C66.7268 13.8877 66.1149 13.3768 65.7041 12.7336C65.8472 11.9972 66.2282 11.319 66.7963 10.7898C67.3644 10.2606 68.0924 9.90569 68.8828 9.77251C69.6733 9.63933 70.4886 9.73424 71.2196 10.0446C71.9506 10.3549 72.5625 10.8658 72.9733 11.5089Z" fill="#4F95BD"/>
</svg>
