<svg width="20" height="21" viewBox="0 0 20 21" fill="none" xmlns="http://www.w3.org/2000/svg">
<g clip-path="url(#clip0_1681_278784)">
<path d="M10 0.994141C4.48578 0.994141 0 5.48077 0 10.996C0 16.5113 4.48578 20.9979 10 20.9979C15.5142 20.9979 20 16.5113 20 10.996C20 5.48077 15.5142 0.994141 10 0.994141ZM14.7559 16.1694C14.5934 16.332 14.38 16.4138 14.1667 16.4138C13.9534 16.4138 13.7399 16.332 13.5776 16.1694L9.41086 12.0021C9.25415 11.8463 9.16672 11.6344 9.16672 11.4128V5.99509C9.16672 5.53419 9.53995 5.16165 10 5.16165C10.4601 5.16165 10.8333 5.53419 10.8333 5.99509V11.0678L14.7559 14.9909C15.0816 15.3169 15.0816 15.8436 14.7559 16.1694Z" fill="#005D90"/>
</g>
<defs>
<clipPath id="clip0_1681_278784">
<rect width="20" height="20.0038" fill="white" transform="translate(0 0.994141)"/>
</clipPath>
</defs>
</svg>
