<svg width="20" height="20" viewBox="0 0 20 20" fill="none" xmlns="http://www.w3.org/2000/svg">
<path fill-rule="evenodd" clip-rule="evenodd" d="M19.6028 17.6228C20.1331 18.1513 20.1331 19.0083 19.6028 19.5368C19.0725 20.0654 18.2127 20.0654 17.6824 19.5368L10.0338 11.9137L2.31817 19.6036C1.78785 20.1321 0.928046 20.1321 0.397734 19.6036C-0.132578 19.075 -0.132578 18.2181 0.397734 17.6895L8.11334 9.99961L0.398508 2.31045C-0.131804 1.7819 -0.131804 0.924959 0.398508 0.396411C0.92882 -0.132137 1.78863 -0.132137 2.31894 0.396411L10.0338 8.08557L17.6816 0.463174C18.2119 -0.0653742 19.0717 -0.0653743 19.602 0.463174C20.1324 0.991722 20.1324 1.84867 19.602 2.37722L11.9542 9.99961L19.6028 17.6228Z" fill="white"/>
</svg>
