<svg width="166" height="157" viewBox="0 0 166 157" fill="none" xmlns="http://www.w3.org/2000/svg">
<path d="M163.272 56.3516C163.094 56.1795 137.113 37.7721 137.113 37.7721L135.14 36.3886L133.431 35.1907L130.004 32.7881L118.897 25C118.339 25.7991 117.943 26.7005 117.733 27.6529C117.523 28.6052 117.502 29.5898 117.671 30.5503C117.84 31.5108 118.197 32.4284 118.72 33.2507C119.244 34.073 119.924 34.7838 120.721 35.3426L122.212 36.3886L123.468 37.2693L99.6305 40.7551C95.5202 38.091 90.6919 36.7591 85.8008 36.9402C80.9096 37.1213 76.1925 38.8066 72.2895 41.7674V41.7674C69.6061 43.8154 67.3844 46.4084 65.7698 49.3767H24.4873C20.2997 49.3834 16.2196 50.7064 12.8212 53.1594C12.6731 53.264 12.5283 53.3686 12.3836 53.48L4.46034 59.0343L3.16448 59.942C1.66974 60.9887 0.612773 62.5516 0.196032 64.3311C-0.220709 66.1106 0.0320789 67.9817 0.905974 69.586C1.04081 69.8274 1.18799 70.0617 1.3469 70.2879L1.86861 71.0438L4.46034 69.225C4.46034 69.3026 4.46034 69.3768 4.46034 69.4544C4.45849 73.529 5.69221 77.5078 7.99787 80.8633V80.8633C8.03826 80.9207 8.07865 80.9814 8.12241 81.0388C8.48185 81.5508 8.86718 82.0441 9.27691 82.5167V82.5167C11.5847 85.8677 12.8209 89.8434 12.8212 93.9155C12.8212 94.3373 12.8043 94.7625 12.7774 95.1843C12.7774 95.3564 12.7606 95.5217 12.7438 95.7006C12.5401 98.0313 11.9283 100.308 10.9363 102.426C10.3162 103.756 9.55085 105.013 8.65422 106.175C7.46214 107.728 6.04913 109.098 4.46034 110.241V151.496L6.50343 156.993H20.5324L12.626 148.264V114.118C17.0797 113.279 21.1677 111.085 24.3346 107.835C27.5015 104.585 29.5937 100.437 30.3271 95.9536C30.3675 95.7006 30.4011 95.4508 30.4314 95.1978C30.4887 94.776 30.5324 94.3508 30.5627 93.929H88.1192V151.459L90.2935 156.993H104.158L96.2983 148.122V93.929H102.293V151.466L104.467 157H118.489L110.459 148.135V91.6546L115.43 85.9519V73.3147L125.376 67.5782L128.863 65.5536V73.0313C128.924 73.0853 128.984 73.1325 129.045 73.1798C130.345 74.1848 131.867 74.8612 133.483 75.1519C135.099 75.4426 136.761 75.3389 138.328 74.8498C139.896 74.3606 141.323 73.5003 142.489 72.3415C143.654 71.1827 144.525 69.7596 145.026 68.1924C145.026 68.1924 145.117 67.8988 145.117 67.8921C145.227 67.5826 145.385 67.2922 145.585 67.0316C146.064 66.4015 146.764 65.9775 147.543 65.8453C148.323 65.7132 149.123 65.8827 149.782 66.3196L149.826 66.35C149.871 66.3792 149.915 66.4107 149.957 66.4444C150.055 66.52 150.148 66.6011 150.236 66.6874C150.36 66.8123 150.473 66.9478 150.573 67.0923C150.66 67.215 150.739 67.3435 150.809 67.477C151.109 67.9189 151.479 68.3096 151.903 68.6344C152.798 69.3269 153.898 69.6994 155.029 69.6927C156.16 69.686 157.256 69.3004 158.143 68.5973C158.758 68.9641 159.443 69.1967 160.153 69.2798C160.864 69.363 161.584 69.2948 162.266 69.0798C162.948 68.8648 163.578 68.5079 164.113 68.0322C164.649 67.5565 165.078 66.973 165.373 66.3196V66.3196C165.477 66.0564 165.568 65.7831 165.649 65.5131C165.649 65.4962 165.649 65.476 165.649 65.4591C165.649 65.4423 165.649 65.4591 165.649 65.4591C165.649 65.4591 165.649 65.4591 165.649 65.4423C165.649 65.4254 165.649 65.4423 165.649 65.4186C166.099 63.8325 166.117 62.1541 165.699 60.559C165.281 58.9639 164.443 57.5108 163.272 56.3516V56.3516Z" fill="white"/>
<path d="M162.276 24.8042C161.903 24.5551 161.445 24.4648 161.005 24.5533C160.565 24.6417 160.178 24.9017 159.929 25.276L158.913 26.8202C156.084 31.0729 150.149 34.1377 144.305 34.5891L150.897 23.8471C151.133 23.4619 151.206 22.9987 151.1 22.5595C150.995 22.1203 150.72 21.7411 150.335 21.5053C149.95 21.2694 149.488 21.1963 149.05 21.302C148.611 21.4076 148.233 21.6834 147.998 22.0687L140.843 33.7236L140.026 17.7719L139.992 10.3663C139.992 9.91618 139.814 9.48455 139.496 9.1663C139.179 8.84805 138.748 8.66926 138.299 8.66926C137.849 8.66926 137.419 8.84805 137.101 9.1663C136.783 9.48455 136.605 9.91618 136.605 10.3663V11.174L136.625 15.3622L136.659 23.3686V24.139C136.659 24.5891 136.481 25.0207 136.163 25.339C135.845 25.6572 135.414 25.836 134.965 25.836C134.516 25.836 134.085 25.6572 133.767 25.339C133.45 25.0207 133.271 24.5891 133.271 24.139L133.251 19.3637C133.256 19.3072 133.256 19.2504 133.251 19.194L133.224 12.9321V11.0077L133.204 6.23239C133.217 6.00954 133.187 5.78615 133.115 5.57497C133.043 5.3638 132.929 5.16897 132.782 5.00162C132.484 4.66364 132.064 4.45809 131.615 4.43019C131.166 4.40229 130.724 4.55431 130.386 4.85283C130.049 5.15134 129.844 5.57189 129.816 6.02196C129.805 6.09729 129.8 6.17326 129.799 6.24936L129.816 10.5292L129.85 18.9937C129.798 19.4017 129.6 19.777 129.293 20.0499C128.986 20.3227 128.59 20.4744 128.18 20.4769C127.916 20.481 127.656 20.4204 127.421 20.3004C127.139 20.161 126.901 19.9455 126.734 19.6782C126.567 19.4108 126.477 19.1021 126.476 18.7867L126.428 8.11944L126.394 1.77271C126.402 1.33997 126.248 0.919926 125.964 0.593898C125.68 0.267871 125.285 0.0590431 124.856 0.00783973C124.621 -0.0149389 124.383 0.0120539 124.158 0.0870756C123.934 0.162097 123.727 0.283481 123.552 0.443391C123.377 0.603301 123.238 0.798184 123.143 1.01546C123.047 1.23274 122.999 1.46758 123 1.70483L123.02 5.79796L123.058 14.6664L123.078 19.5673C123.084 21.2122 123.445 22.8363 124.136 24.3284C124.827 25.8205 125.832 27.1452 127.082 28.2118L140.267 37.6504C140.318 37.6894 140.373 37.7246 140.43 37.7556L140.487 37.7896C140.561 37.8272 140.636 37.8601 140.714 37.888H140.782C140.839 37.9059 140.896 37.9206 140.955 37.9321H141.049C141.075 37.934 141.101 37.934 141.127 37.9321C141.693 37.9796 142.259 38 142.821 38C150.274 38 157.998 34.2395 161.711 28.6632L162.727 27.1189C162.966 26.7498 163.053 26.3022 162.969 25.8703C162.885 25.4385 162.636 25.0563 162.276 24.8042V24.8042Z" fill="white"/>
<path d="M32.3099 96.1775C31.9691 99.9558 30.5456 103.558 28.2073 106.56C27.0114 108.102 25.5939 109.462 24 110.596V151.544L26.0496 157H40.3699L32.1782 148.335V114.444C36.6461 113.611 40.7472 111.434 43.9242 108.208C47.1012 104.983 49.2001 100.865 49.9358 96.4153C49.9764 96.1641 49.9662 96.2512 50 96H32.3099C32.3099 96.0402 32.3099 96.0067 32.3099 96.1775Z" fill="white"/>
<path d="M142 49C143.105 49 144 48.1046 144 47C144 45.8954 143.105 45 142 45C140.895 45 140 45.8954 140 47C140 48.1046 140.895 49 142 49Z" fill="#005D90"/>
</svg>
