<svg width="36" height="25" viewBox="0 0 36 25" fill="none" xmlns="http://www.w3.org/2000/svg">
<path d="M12.8998 12.1482L10.009 7.64395L10.18 7.5489L9.3806 6.29742C9.18453 5.99115 8.85774 5.80634 8.50582 5.80634H7.52548V4.98786C8.19915 4.66047 8.67173 3.9476 8.67173 3.11328C8.67173 3.06047 8.67173 3.00767 8.6667 2.95486H8.67173V1.94629C7.47018 2.675 5.71058 2.13639 5.31342 1.99909C5.238 2.30536 5.15757 2.57467 4.75035 2.75421V3.11328C4.75035 3.93704 5.21287 4.64991 5.87649 4.9773V5.80634H4.88609C4.52411 5.80634 4.1923 5.99643 3.99623 6.31854C3.68453 6.83075 3.25218 7.53834 3.24715 7.5489L3.43819 7.65979L3.43316 7.66507L2.95053 8.36738L0.88929 6.98917C0.61781 6.80963 0.260863 6.89412 0.0899313 7.17399C-0.0810009 7.45913 -0.000562205 7.83405 0.265891 8.01358L2.78463 9.69806C2.88015 9.76143 2.99075 9.79311 3.09633 9.79311C3.27731 9.79311 3.45327 9.70335 3.56388 9.54493L4.36826 8.38322C4.39843 8.34098 4.41854 8.29873 4.43362 8.25649L4.51908 8.30401V12.8822H4.80565V23.0208H4.78051C3.94596 23.0208 3.27228 23.7284 3.27228 24.6049H6.43956V23.0208H6.64065V13.7535C6.64065 13.7112 6.67585 13.6743 6.71606 13.6743C6.75628 13.6743 6.79148 13.7112 6.79148 13.7535V23.0208H7.01771V24.6049H10.185C10.185 23.7284 9.51131 23.0208 8.67676 23.0208V12.8822H8.95829V8.20896L8.97337 8.1984L11.9395 12.8241C12.0502 12.9984 12.2362 13.0934 12.4172 13.0934C12.5278 13.0934 12.6384 13.0617 12.7389 12.9878C13.0104 12.803 13.0808 12.4281 12.8998 12.1482Z" fill="#005D90"/>
<path d="M5.18235 1.90887L5.20749 1.79274L5.28793 1.82441C5.30804 1.83497 7.41451 2.61617 8.68141 1.76107C8.92775 1.47076 9.07355 1.08543 9.07355 0.663161C9.07355 0.620933 9.03836 0.583984 8.99814 0.583984H5.75548C5.20246 0.583984 4.75 1.05376 4.75 1.63967C4.75 1.63967 4.75 2.16223 4.75 2.58978C5.0617 2.42087 5.11197 2.21502 5.18235 1.90887Z" fill="#005D90"/>
<path d="M20.5673 6.17773H19.0312V7.81305H20.5673V6.17773Z" fill="#005D90"/>
<path d="M21.7191 3.66316C21.8555 3.9615 21.9212 4.28116 21.9212 4.61679C21.9161 4.92046 21.8757 5.12824 21.8757 5.13889C21.8403 5.30938 21.7898 5.47453 21.7191 5.62903C21.6483 5.78353 21.5624 5.9327 21.4563 6.07122C21.4563 6.07122 21.4563 6.07122 21.4513 6.07655C21.4361 6.09786 21.421 6.11917 21.4058 6.13515C21.5725 6.57201 21.9666 6.85437 22.4214 6.85437H22.5931C22.6689 6.85437 22.7447 6.84372 22.8154 6.82773C23.0175 6.78511 23.1994 6.67856 23.346 6.52406C23.447 6.41751 23.5278 6.28965 23.5784 6.15113C23.5076 6.17777 23.4318 6.19375 23.351 6.19375C22.9872 6.19375 22.6942 5.88475 22.6942 5.50117V3.2849C22.6942 2.83206 22.5275 2.40052 22.2193 2.08087C21.9161 1.76122 21.5069 1.58008 21.0774 1.58008C20.5115 1.58008 19.9962 1.88908 19.7031 2.37921C19.7385 2.37921 19.7688 2.37921 19.8042 2.37921C20.6176 2.37921 21.3704 2.88533 21.7191 3.66316Z" fill="#005D90"/>
<path d="M19.7993 6.74799C20.1832 6.74799 20.542 6.6308 20.8451 6.43372C20.9866 6.33784 21.118 6.22598 21.2342 6.09814C21.2695 6.05553 21.3049 6.01291 21.3403 5.9703C21.5272 5.72528 21.6636 5.42699 21.7293 5.10739L21.6333 4.89966C21.5272 4.67061 21.3049 4.52679 21.0624 4.52679C21.0422 4.52679 21.027 4.52679 21.0068 4.52679C21.0017 4.52679 20.9967 4.52679 20.9916 4.52679C20.9866 4.52679 20.9815 4.52679 20.9815 4.52679H20.9714H20.9664C20.8956 4.53745 20.8199 4.53745 20.739 4.53745C20.7239 4.53745 20.7087 4.53745 20.6935 4.53745C20.1731 4.52679 19.6831 4.31373 19.3092 3.95152C19.198 3.83966 19.0919 3.71715 19.006 3.58398C18.8747 3.74378 18.713 3.88227 18.5311 3.98348C18.4452 4.03142 18.3593 4.07403 18.2684 4.10599H18.2633H18.2582C18.1622 4.13795 18.0764 4.19654 18.0107 4.27644L17.854 4.45755C17.849 4.52679 17.8439 4.59604 17.8439 4.67061C17.8288 5.82116 18.7079 6.74799 19.7993 6.74799Z" fill="#005D90"/>
<path d="M18.2112 3.90362C18.3173 3.86633 18.4234 3.81307 18.5194 3.75448C18.7165 3.62664 18.8832 3.45619 19.0095 3.25379C19.0904 3.40826 19.1864 3.55207 19.3026 3.67991C19.6613 4.08472 20.1665 4.33506 20.7324 4.33506C20.7627 4.33506 20.9042 4.32974 20.9446 4.32441H20.9497C20.9598 4.32441 20.9699 4.32441 20.98 4.31908C21.0052 4.31908 21.0255 4.31376 21.0507 4.31376C21.3589 4.31376 21.6318 4.50018 21.7581 4.77716C21.7631 4.7239 21.7631 4.67596 21.7631 4.62269C21.7631 4.30843 21.6974 4.00482 21.5762 3.7385C21.2629 3.03008 20.5859 2.54004 19.7977 2.54004C19.6714 2.54004 19.5552 2.55069 19.4339 2.57732C19.1712 2.63059 18.9236 2.73712 18.7064 2.88626C18.3022 3.16856 17.999 3.60533 17.8828 4.11668C17.9687 4.0208 18.0748 3.94623 18.1961 3.90362C18.2011 3.90362 18.2062 3.90362 18.2112 3.90362Z" fill="#005D90"/>
<path d="M21.9302 18.2558V14.1376C22.0767 14.1056 22.208 14.0097 22.2939 13.8659L23.9107 11.1488C24.0421 10.9304 24.0269 10.6427 23.8754 10.4403L22.9508 9.22025L23.0417 9.12435C22.4253 7.90434 21.2076 7.07324 19.8081 7.07324C18.3984 7.07324 17.1707 7.915 16.5593 9.15099L16.6958 9.29483L14.0988 13.3598C13.9219 13.6421 13.9876 14.0204 14.2554 14.2122C14.3564 14.2814 14.4676 14.3187 14.5788 14.3187C14.7657 14.3187 14.9476 14.2228 15.0587 14.047L17.5294 10.1792L17.59 10.2431V13.8872L17.7366 13.8925V18.2611H18.2923V23.0133C17.4385 23.0932 16.7766 23.6739 16.7766 24.6009H19.4544V23.7751V22.9973V18.2558H19.7222V15.4055C19.7222 15.3629 19.7576 15.3256 19.803 15.3256C19.8485 15.3256 19.8839 15.3629 19.8839 15.4055V18.2558H20.1062V22.9973V23.7698V24.5956H22.8346C22.8346 23.6473 22.1474 23.0612 21.2683 23.0026V18.2558H21.9302ZM22.7082 10.8665L22.0716 11.9373V10.1472L22.1272 10.0886L22.7082 10.8665Z" fill="#005D90"/>
<path d="M32.8969 12.0563H33.8325C33.9839 12.0563 34.1028 11.9319 34.1028 11.7737C34.1028 11.6155 33.9839 11.4911 33.8325 11.4911H32.6427C32.2966 10.9486 31.7072 10.5869 31.0312 10.5869C30.1443 10.5869 29.4034 11.2086 29.1709 12.0563H32.4751H32.8969Z" fill="#005D90"/>
<path d="M35.8919 13.1866C35.6972 12.8927 35.3079 12.8136 35.0267 13.017L32.6472 14.7241L32.2146 15.0067H31.6414V14.7523C32.4147 14.4867 32.9717 13.7292 32.9717 12.8305C32.9717 12.6383 32.9446 12.4575 32.9014 12.2822H29.1862C29.1375 12.4575 29.1159 12.644 29.1159 12.8305C29.1159 13.7292 29.6783 14.4923 30.4516 14.7523V15.0067H29.9974L28.8834 14.2775L28.8725 14.3001L26.9582 13.0114C26.6716 12.8192 26.2822 12.904 26.0983 13.2036C25.9145 13.5031 25.9956 13.9101 26.2822 14.1023L28.2074 15.4024L28.0343 15.6906L29.3268 16.5385V18.5734L28.6454 21.5861L29.051 21.6709L28.6508 23.1914C28.1641 23.2309 27.7748 23.6549 27.7748 24.1749V24.5988H29.7757V23.8075L30.2678 21.9252L30.6788 22.01L31.1006 20.1334L31.5224 22.01L31.8793 21.9309L32.3714 23.8018V24.5932H34.3723V24.1692C34.3723 23.6492 33.9884 23.2253 33.4962 23.1857L33.0961 21.6709L33.5071 21.5804L32.8581 18.6977V16.5385L33.9992 15.7867L33.7991 15.4532L35.7243 14.074C36.0109 13.8875 36.0866 13.4862 35.8919 13.1866Z" fill="#005D90"/>
</svg>
