<svg width="50" height="50" viewBox="0 0 50 50" fill="none" xmlns="http://www.w3.org/2000/svg">
<circle cx="25" cy="25" r="25" fill="white"/>
<path d="M29.65 26.15C30.6833 26.35 31.6333 26.7167 32.5 27.25C33.3667 27.75 34.1 28.4 34.7 29.2C35.3333 29.9667 35.8167 30.8667 36.15 31.9C36.4833 32.9 36.65 33.9833 36.65 35.15C36.65 36.7167 36.3333 38.1167 35.7 39.35C35.0667 40.6167 34.15 41.6833 32.95 42.55C31.7833 43.45 30.3667 44.1333 28.7 44.6C27.0333 45.1 25.1667 45.35 23.1 45.35C18.0333 45.35 14.0667 43.8667 11.2 40.9L15.5 35.2C16.4 36.1333 17.4167 36.85 18.55 37.35C19.7167 37.8167 21.1 38.05 22.7 38.05C26.4667 38.05 28.35 36.6667 28.35 33.9C28.35 32.4 27.7833 31.2667 26.65 30.5C25.55 29.7333 23.8 29.35 21.4 29.35H19.9V23.6H21.55C23.4167 23.6 24.8667 23.2167 25.9 22.45C26.9667 21.6833 27.5 20.6667 27.5 19.4C27.5 18.3 27.1167 17.4667 26.35 16.9C25.5833 16.3333 24.5667 16.05 23.3 16.05C21.9333 16.05 20.6833 16.3833 19.55 17.05C18.45 17.6833 17.5167 18.6 16.75 19.8L11.7 14C12.2333 13.3 12.9333 12.65 13.8 12.05C14.6667 11.45 15.65 10.95 16.75 10.55C17.85 10.1167 19.0333 9.78333 20.3 9.55C21.5667 9.31667 22.8667 9.2 24.2 9.2C25.9667 9.2 27.5833 9.41667 29.05 9.85C30.5167 10.25 31.7667 10.85 32.8 11.65C33.8333 12.4167 34.6333 13.35 35.2 14.45C35.7667 15.5167 36.05 16.7167 36.05 18.05C36.05 19.05 35.8833 20 35.55 20.9C35.25 21.8 34.8167 22.6167 34.25 23.35C33.6833 24.0833 33 24.7 32.2 25.2C31.4333 25.6667 30.5833 25.9833 29.65 26.15Z" fill="#C5E5ED"/>
</svg>
