<svg width="20" height="20" viewBox="0 0 20 20" fill="none" xmlns="http://www.w3.org/2000/svg">
<path d="M11.7997 14.6C11.5997 14.5 11.2997 14.6 11.1997 14.9C10.9997 15.4 10.6997 16 10.3997 16.6C10.2997 16.8 10.2997 17.1 10.5997 17.2C10.6997 17.2 10.7997 17.3 10.8997 17.3C11.0997 17.3 11.1997 17.2 11.2997 17.1C11.6997 16.5 11.9997 15.8 12.1997 15.2C12.1997 14.9 12.0997 14.6 11.7997 14.6Z" fill="#005D90"/>
<path d="M9.1 17.8981C8.6 18.2981 8.1 18.4981 7.4 18.6981C7.1 18.7981 7 18.9981 7.1 19.2981C7.2 19.4981 7.4 19.5981 7.6 19.5981H7.7C8.4 19.3981 9.1 18.9981 9.7 18.5981C9.9 18.3981 9.9 18.1981 9.8 17.9981C9.6 17.7981 9.3 17.6981 9.1 17.8981Z" fill="#005D90"/>
<path d="M13.5002 11.2016C12.7002 11.6016 12.3002 12.4016 12.0002 12.9016C11.9002 13.1016 12.0002 13.4016 12.2002 13.5016C12.3002 13.5016 12.3002 13.5016 12.4002 13.5016C12.6002 13.5016 12.8002 13.4016 12.8002 13.2016C13.1002 12.5016 13.5002 12.1016 13.9002 11.9016C14.1002 11.8016 14.2002 11.5016 14.1002 11.3016C14.0002 11.2016 13.7002 11.1016 13.5002 11.2016Z" fill="#005D90"/>
<path d="M17.7998 10.0999C17.5998 9.99987 17.2998 9.99986 17.0998 10.1999C16.8998 10.3999 16.5998 10.6999 15.5998 10.7999C15.2998 10.7999 15.0998 10.9999 15.1998 11.2999C15.1998 11.4999 15.3998 11.6999 15.6998 11.6999C16.6998 11.5999 17.4998 11.2999 17.8998 10.6999C18.0998 10.4999 17.9998 10.2999 17.7998 10.0999Z" fill="#005D90"/>
<path d="M5 6C2.2 6 0 8.4 0 11.2C0 14.1 5 20 5 20C5 20 10 14.1 10 11.2C10 8.4 7.8 6 5 6ZM5 13.3C3.9 13.3 2.9 12.4 2.9 11.2C2.9 10 3.9 9.2 5 9.2C6.1 9.2 7.1 10.1 7.1 11.3C7.1 12.5 6.1 13.3 5 13.3Z" fill="#005D90"/>
<path d="M17 0C15.3 0 14 1.5 14 3.4C14 5.3 17 9 17 9C17 9 20 5.2 20 3.4C20 1.6 18.7 0 17 0ZM17 4.5C16.4 4.5 15.9 4 15.9 3.4C15.9 2.8 16.4 2.3 17 2.3C17.6 2.3 18.1 2.8 18.1 3.4C18.1 4 17.6 4.5 17 4.5Z" fill="#005D90"/>
</svg>
