<svg width="14" height="25" viewBox="0 0 14 25" fill="none" xmlns="http://www.w3.org/2000/svg">
<path fill-rule="evenodd" clip-rule="evenodd" d="M5.6003 2.81484C5.6003 1.78395 6.43601 0.948242 7.4669 0.948242C8.33337 0.948242 9.06196 1.53863 9.27232 2.33907H10.0109C10.1542 2.33907 10.2668 2.49973 10.2668 2.7042C10.2668 2.90868 10.1542 3.06934 10.0109 3.06934H9.32357C9.25336 3.75005 8.81735 4.32225 8.21542 4.58603L7.99286 5.90276L6.53282 5.64788L6.71272 4.58354C6.11373 4.31865 5.68022 3.74791 5.61024 3.06934H5.60028C5.60251 3.05824 5.60479 3.04718 5.60711 3.03615C5.6026 2.98322 5.6003 2.92966 5.6003 2.87557V2.81484ZM2.4454 9.16446C2.45549 9.1476 2.46618 9.11783 2.47993 9.07951C2.54104 8.9092 2.66272 8.57012 3.06221 8.44601L5.21633 7.67674L5.24358 7.24524C5.29046 6.50252 4.76009 5.86015 4.05902 5.81048C3.40754 5.74246 3.04239 5.70274 2.82925 5.67956C2.54036 5.64814 2.53073 5.64709 2.46592 5.64709C1.80197 5.64709 1.24273 6.19289 1.19778 6.90506L0.965646 10.583C0.451176 10.7274 0.0594785 11.2057 0.0222261 11.7959L0.00280113 12.1039C-0.0401695 12.7848 0.416194 13.3748 1.03162 13.4834C0.963838 13.1925 0.980278 12.8768 1.09775 12.5792L2.4454 9.16446ZM13.3515 10.7701L10.799 10.0894L9.53595 7.61591C9.33975 7.20519 8.94988 6.91155 8.48493 6.87861L5.7121 6.67834C5.7121 6.67834 5.74145 6.93211 5.74683 7.00516C6.20858 7.0347 6.64631 7.25336 6.96107 7.61591C7.59078 8.34131 7.596 9.46609 6.95602 10.1971L5.45613 11.9106L5.40353 12.7441C5.36069 13.4233 4.99174 14.005 4.46617 14.3219L4.43139 14.8732L4.44363 14.8741C4.44384 14.8823 4.4438 14.8906 4.44422 14.8989L4.62581 18.7591L3.26441 21.151L2.53686 20.8663L1.86622 22.6366L2.79019 22.9981C2.89191 23.2018 3.05505 23.3732 3.26762 23.4776C3.53417 23.6086 3.82645 23.6086 4.07985 23.5027L5.35015 23.9997C5.59252 23.3599 5.46687 22.6672 5.07823 22.158L6.60393 19.4335C6.67427 19.2729 6.70665 19.0965 6.69832 18.9196L6.51488 15.0208L6.97978 15.0537L8.12077 18.6485L8.40039 22.0418V23.7131H8.53811L8.55384 23.9039C8.60366 24.5086 9.10695 24.9496 9.67078 24.8973C10.2381 24.8448 10.6579 24.315 10.6084 23.714L10.6083 23.7131H12.1336C12.1336 22.7386 11.3988 21.9358 10.453 21.8284L10.1646 18.3288C10.1575 18.2425 10.1408 18.1575 10.1147 18.0755L9.20563 15.2114L9.23401 15.2134L9.48342 11.2614L9.67826 11.4991C9.79355 11.6398 9.94689 11.7397 10.1174 11.7851L12.932 12.5357C13.3923 12.6584 13.8593 12.3625 13.9751 11.875C14.091 11.3875 13.8117 10.8928 13.3515 10.7701ZM3.15142 13.4888L4.381 10.3732L5.60045 9.71467L5.50821 11.0661L6.5847 9.83634C7.02572 9.33256 7.04279 8.54285 6.58832 7.98045C6.57575 7.9649 6.56301 7.94989 6.55006 7.93546C6.24682 7.59639 5.75993 7.52847 5.37105 7.74855L3.30127 8.92004C3.12669 9.01884 2.98971 9.17844 2.91336 9.37184L1.56575 12.7865C1.38268 13.2504 1.58925 13.7836 2.02712 13.9776C2.46305 14.1707 2.96755 13.9548 3.15142 13.4888ZM4.89808 12.7121C4.85062 13.4638 4.25294 14.0977 3.42676 14.0406C3.50353 13.9383 3.56874 13.8236 3.61869 13.6971L4.86491 10.5395L5.04541 10.3779L4.89808 12.7121Z" fill="#005D90"/>
</svg>
