<svg width="36" height="36" viewBox="0 0 36 36" fill="none" xmlns="http://www.w3.org/2000/svg">
<rect x="1" y="1" width="34" height="34" rx="4" stroke="white" stroke-width="2"/>
<path d="M15.6828 17.1547V14.4748C15.6018 13.2418 14.8644 13.1349 14.8644 12.7001C14.8644 12.4863 15.067 12.2725 15.383 12.2725H18.6241C19.0697 12.2725 19.2237 12.4863 19.2237 12.9424V16.556C19.2237 16.9409 19.41 17.0835 19.5478 17.0835C19.8071 17.0835 20.0258 16.9409 20.512 16.5204C21.9867 15.0593 23.0481 12.807 23.0481 12.807C23.1859 12.5433 23.429 12.2938 23.9475 12.2938H26.0137C26.6295 12.2938 26.7754 12.5718 26.6295 12.9638C26.3703 14.0187 23.8665 17.1334 23.8665 17.1547C23.6477 17.4684 23.5667 17.6109 23.8665 17.9601C24.0934 18.2239 24.8145 18.7727 25.2926 19.2645C26.1758 20.1483 26.8483 20.8824 27.0347 21.3956C27.1967 21.9087 26.9131 22.1725 26.3135 22.1725H24.2473C23.4695 22.1725 23.2345 21.6094 21.8327 20.3763C20.6092 19.3357 20.0664 19.1932 19.7666 19.1932C19.3452 19.1932 19.2318 19.2787 19.2318 19.8133V21.4455C19.2318 21.8874 19.0697 22.1511 17.749 22.1511C15.5694 22.1511 13.1466 20.9893 11.437 18.8226C8.88462 15.658 8.17969 13.2632 8.17969 12.7856C8.17969 12.5219 8.27692 12.2725 8.88462 12.2725H10.9589C11.4856 12.2725 11.6801 12.472 11.8826 12.9781C12.9036 15.5653 14.6051 17.839 15.302 17.839C15.5613 17.839 15.6828 17.7321 15.6828 17.1547Z" fill="white"/>
</svg>
