<svg width="36" height="36" viewBox="0 0 36 36" fill="none" xmlns="http://www.w3.org/2000/svg">
<rect x="1" y="1" width="34" height="34" rx="4" stroke="white" stroke-width="2"/>
<path d="M23.1768 26.9996H13.7232C12.4704 26.9996 11.268 26.5028 10.3824 25.6172C9.4968 24.7316 9 23.5292 9 22.2764V12.8228C9 11.57 9.4968 10.3676 10.3824 9.48201C11.268 8.59641 12.4704 8.09961 13.7232 8.09961H23.1768C24.4296 8.09961 25.632 8.59641 26.5176 9.48201C27.4032 10.3676 27.9 11.57 27.9 12.8228V22.2764C27.9 23.5292 27.4032 24.7316 26.5176 25.6172C25.632 26.5028 24.4296 26.9996 23.1768 26.9996ZM13.7232 9.99321C12.9744 9.99321 12.2544 10.2956 11.7216 10.8212C11.1888 11.354 10.8936 12.074 10.8936 12.8228V22.2764C10.8936 23.0252 11.196 23.7452 11.7216 24.278C12.2544 24.8108 12.9744 25.106 13.7232 25.106H23.1768C23.9256 25.106 24.6456 24.8036 25.1784 24.278C25.7112 23.7524 26.0064 23.0252 26.0064 22.2764V12.8228C26.0064 12.074 25.704 11.354 25.1784 10.8212C24.6456 10.2884 23.9256 9.99321 23.1768 9.99321H13.7232Z" fill="white"/>
<path d="M18.4446 22.9023C17.3862 22.9023 16.3494 22.5855 15.471 22.0023C14.5926 21.4119 13.9014 20.5767 13.4982 19.5975C13.095 18.6183 12.987 17.5455 13.1958 16.5015C13.4046 15.4647 13.9158 14.5071 14.6646 13.7583C15.4134 13.0095 16.371 12.4983 17.4078 12.2895C18.4446 12.0807 19.5246 12.1887 20.5038 12.5919C21.483 12.9951 22.3182 13.6863 22.9086 14.5647C23.499 15.4431 23.8086 16.4799 23.8086 17.5383C23.8086 18.9567 23.2398 20.3175 22.239 21.3255C21.231 22.3407 19.8702 22.9023 18.4446 22.9023ZM18.4446 14.0823C17.7606 14.0823 17.091 14.2839 16.5222 14.6655C15.9534 15.0471 15.507 15.5871 15.2478 16.2207C14.9886 16.8543 14.9166 17.5527 15.0534 18.2223C15.1902 18.8919 15.5142 19.5111 16.0038 19.9935C16.4862 20.4759 17.1054 20.8071 17.775 20.9439C18.4446 21.0807 19.143 21.0087 19.7766 20.7495C20.4102 20.4903 20.9502 20.0439 21.3318 19.4751C21.7134 18.9063 21.915 18.2367 21.915 17.5527C21.915 16.6311 21.5478 15.7527 20.8998 15.1047C20.2446 14.4495 19.3662 14.0823 18.4446 14.0823Z" fill="white"/>
<path d="M23.7987 13.4567C24.3171 13.4567 24.7419 13.0319 24.7419 12.5135C24.7419 11.9951 24.3171 11.5703 23.7987 11.5703C23.2803 11.5703 22.8555 11.9951 22.8555 12.5135C22.8555 13.0319 23.2803 13.4567 23.7987 13.4567Z" fill="white"/>
</svg>
