<svg width="192" height="113" viewBox="0 0 192 113" fill="none" xmlns="http://www.w3.org/2000/svg">
<path d="M70.0731 105.24C68.286 105.24 66.5721 104.526 65.3084 103.256C64.0448 101.985 63.3349 100.261 63.3349 98.4641C63.3349 94.9667 64.4579 91.8701 67.1025 90H38V100.322C38 103.684 39.3282 106.909 41.6925 109.287C44.0568 111.664 47.2635 113 50.6071 113H75V110.171C75 108.856 74.4809 107.596 73.5569 106.667C72.633 105.738 71.3798 105.216 70.0731 105.216V105.24Z" fill="white"/>
<path d="M189.577 27.4506C178.193 25.2945 168.298 18.68 161.326 9.44052C159.332 6.80232 156.604 4.80898 153.483 3.70951C150.362 2.61004 146.985 2.45317 143.775 3.2585V5.41492e-08C139.674 -0.000341191 135.738 1.61221 132.819 4.48839C129.901 7.36458 128.235 11.2728 128.182 15.3667C126.191 16.3522 123.999 16.863 121.776 16.8589H35.3397C25.967 16.8589 16.9782 20.5763 10.3508 27.1931C3.72328 33.81 0 42.7844 0 52.1421L0 100.258C0 103.631 1.342 106.866 3.73078 109.251C6.11955 111.636 9.35943 112.976 12.7377 112.976H37.3833V110.137C37.3833 108.819 36.8589 107.555 35.9253 106.623C34.9918 105.691 33.7256 105.167 32.4054 105.167C30.604 105.161 28.8786 104.442 27.6071 103.168C26.3357 101.894 25.6217 100.169 25.6217 98.3702C25.6217 95.6241 26.7144 92.9905 28.6593 91.0488C30.6041 89.107 33.242 88.0161 35.9925 88.0161H37.3833H92.0553V99.4665C92.0553 103.055 93.4826 106.496 96.0233 109.034C98.5641 111.572 102.01 112.998 105.604 113H130.006V109.997C130.004 108.716 129.493 107.487 128.585 106.582C127.677 105.676 126.446 105.167 125.162 105.167C122.706 105.161 120.352 104.182 118.617 102.445C116.882 100.709 115.908 98.3562 115.908 95.9035V87.4436C115.926 82.4486 117.01 77.5149 119.089 72.9712C121.167 68.4275 124.191 64.3782 127.96 61.0932C131.729 57.8081 136.155 55.3628 140.945 53.9202C145.735 52.4775 150.778 52.0707 155.738 52.7268C156.512 52.8243 157.287 52.9522 158.043 53.1105C165.363 54.0469 172.777 52.3628 178.97 48.3574C185.163 44.352 189.734 38.2846 191.87 31.2329C191.992 30.8338 192.029 30.4135 191.977 29.9994C191.926 29.5852 191.787 29.1867 191.57 28.8297C191.354 28.4727 191.064 28.1654 190.721 27.9277C190.377 27.6901 189.987 27.5275 189.577 27.4506Z" fill="white"/>
<path d="M159.5 22C160.881 22 162 20.8807 162 19.5C162 18.1193 160.881 17 159.5 17C158.119 17 157 18.1193 157 19.5C157 20.8807 158.119 22 159.5 22Z" fill="#88BF57"/>
</svg>
