<svg width="26" height="20" viewBox="0 0 26 20" fill="none" xmlns="http://www.w3.org/2000/svg">
<path d="M13.7199 10.169C13.7199 12.041 15.1953 13.5586 17.0152 13.5586C18.8352 13.5586 20.3105 12.041 20.3105 10.169C20.3105 8.2969 18.8352 6.7793 17.0152 6.7793C15.1953 6.7793 13.7199 8.2969 13.7199 10.169Z" fill="#D76729"/>
<path d="M13.7199 3.38967C13.7199 5.26173 15.1953 6.77933 17.0152 6.77933C18.8352 6.77933 20.3105 5.26173 20.3105 3.38967C20.3105 1.51761 18.8352 -6.43587e-08 17.0152 -1.43749e-07C15.1953 -2.2314e-07 13.7199 1.51761 13.7199 3.38967Z" fill="#D76729"/>
<path d="M13.9992 16.6104C13.9992 18.4824 15.4746 20 17.2945 20C19.1145 20 20.5898 18.4824 20.5898 16.6104C20.5898 14.7383 19.1145 13.2207 17.2945 13.2207C15.4746 13.2207 13.9992 14.7383 13.9992 16.6104Z" fill="#D76729"/>
<path d="M19.4094 6.78029C19.4094 8.65235 20.8847 10.17 22.7047 10.17C24.5246 10.17 26 8.65235 26 6.78029C26 4.90823 24.5246 3.39062 22.7047 3.39062C20.8847 3.39062 19.4094 4.90823 19.4094 6.78029Z" fill="#D76729"/>
<path d="M19.4094 13.5596C19.4094 15.4316 20.8847 16.9493 22.7047 16.9493C24.5246 16.9493 26 15.4316 26 13.5596C26 11.6875 24.5246 10.1699 22.7047 10.1699C20.8847 10.1699 19.4094 11.6875 19.4094 13.5596Z" fill="#D76729"/>
<path d="M8.11248 6.78029C8.11248 8.65235 9.58784 10.17 11.4078 10.17C13.2278 10.17 14.7031 8.65235 14.7031 6.78029C14.7031 4.90823 13.2278 3.39062 11.4078 3.39062C9.58784 3.39062 8.11248 4.90823 8.11248 6.78029Z" fill="#D76729"/>
<path d="M8.11248 13.5596C8.11248 15.4316 9.58785 16.9493 11.4078 16.9493C13.2278 16.9493 14.7031 15.4316 14.7031 13.5596C14.7031 11.6875 13.2278 10.1699 11.4078 10.1699C9.58785 10.1699 8.11248 11.6875 8.11248 13.5596Z" fill="#D76729"/>
<path d="M0.00140187 10.0689L2.06641 10.0689L1.32252 9.30371C0.734451 9.62985 0.250721 9.91558 4.76503e-05 10.0661L0.00140187 10.0689Z" fill="#88BF57"/>
<path d="M7.10309 10.0698L8.24805 10.0698C8.22042 9.37726 7.93355 8.72248 7.44743 8.24244C6.9613 7.7624 6.31358 7.49428 5.6397 7.49414C5.34383 7.51066 5.0518 7.57074 4.77251 7.67254L7.10173 10.0684L7.10309 10.0698Z" fill="#88BF57"/>
<path d="M2.36665 10.0692L4.43164 10.0692L2.8856 8.47754C2.41271 8.71169 1.93711 8.96118 1.51707 9.19533L2.36529 10.0678L2.36665 10.0692Z" fill="#88BF57"/>
<path d="M4.73714 10.0687L6.80078 10.0687L4.54609 7.74805C4.10165 7.90972 3.5976 8.13133 3.09219 8.37664L4.73578 10.0673L4.73714 10.0687Z" fill="#88BF57"/>
<path d="M2.36664 10.2891L1.51842 11.1616C1.94389 11.3957 2.41407 11.6452 2.88696 11.8794L4.43164 10.2891L2.36664 10.2891Z" fill="#88BF57"/>
<path d="M5.34056e-05 10.2899C0.250726 10.4404 0.734457 10.7261 1.32252 11.0523L2.06641 10.2871L5.34056e-05 10.2899Z" fill="#88BF57"/>
<path d="M8.24805 10.2891L7.10173 10.2891L4.77387 12.6836C5.05315 12.7854 5.34519 12.8455 5.64105 12.862C6.31424 12.8615 6.96125 12.5936 7.44701 12.1142C7.93277 11.6348 8.21975 10.9809 8.24805 10.2891Z" fill="#88BF57"/>
<path d="M4.73714 10.2891L3.09219 11.9867C3.59895 12.232 4.10165 12.4536 4.54609 12.6153L6.80078 10.2891L4.73714 10.2891Z" fill="#88BF57"/>
<path d="M1.71161 19.4814L3.19531 18.004L2.14249 17.9873C1.94195 18.6424 1.78748 19.1929 1.7089 19.4814C1.7089 19.4814 1.71161 19.4828 1.71161 19.4814Z" fill="#88BF57"/>
<path d="M6.8162 14.3965L7.63867 13.5755C7.15022 13.0982 6.5013 12.8336 5.82758 12.8369C5.15386 12.8403 4.50748 13.1114 4.02357 13.5936C3.82176 13.8163 3.65243 14.068 3.52087 14.3407L6.81484 14.3951L6.8162 14.3965Z" fill="#88BF57"/>
<path d="M3.41413 17.7851L4.89648 16.3077L2.70954 16.2715C2.52933 16.7774 2.35996 17.2931 2.21362 17.7656L3.41278 17.7851L3.41413 17.7851Z" fill="#88BF57"/>
<path d="M5.11499 16.0885L6.60547 14.6125L3.41583 14.5596C3.20581 14.993 2.99443 15.5115 2.79661 16.0509L5.1204 16.0885L5.11499 16.0885Z" fill="#88BF57"/>
<path d="M3.56647 17.9446L3.5475 19.1781C4.0109 19.0387 4.51767 18.8854 5.01495 18.7154L5.04883 16.4658L3.56647 17.9446Z" fill="#88BF57"/>
<path d="M1.86785 19.6404C2.15104 19.5693 2.69033 19.4285 3.33395 19.2417L3.35156 18.1602L1.86785 19.6404Z" fill="#88BF57"/>
<path d="M7.79404 13.7354L6.97156 14.5549L6.91871 17.9432C7.18824 17.8173 7.43841 17.6516 7.66125 17.4512C8.1448 16.9689 8.42857 16.3131 8.45331 15.6207C8.47806 14.9283 8.24186 14.2529 7.79404 13.7354Z" fill="#88BF57"/>
<path d="M5.26901 16.251L5.23242 18.6413C5.76222 18.4559 6.27305 18.2552 6.70122 18.0531L6.75 14.7764L5.26901 16.251Z" fill="#88BF57"/>
<path d="M1.72858 0.859018L3.21094 2.33503L2.15947 2.35315C1.95758 1.69668 1.80311 1.14753 1.72587 0.859018C1.72587 0.859018 1.72723 0.857624 1.72858 0.859018Z" fill="#88BF57"/>
<path d="M6.82791 5.93945L7.65039 6.75899C7.16211 7.2365 6.51329 7.50138 5.83957 7.49826C5.16585 7.49514 4.51937 7.22427 4.03529 6.74227C3.83428 6.51921 3.66544 6.26762 3.53394 5.9952L6.82791 5.94085L6.82791 5.93945Z" fill="#88BF57"/>
<path d="M3.42944 2.55273L4.91992 4.03014L2.73298 4.06777C2.55141 3.56183 2.38339 3.04613 2.2357 2.57364L3.43486 2.55273L3.42944 2.55273Z" fill="#88BF57"/>
<path d="M5.13093 4.24512L6.61328 5.72252L3.42365 5.77548C3.21362 5.34202 3.0036 4.82214 2.80442 4.28414L5.13093 4.24512Z" fill="#88BF57"/>
<path d="M3.57684 2.3917L3.55787 1.1582C4.02127 1.29758 4.52804 1.45229 5.02667 1.62233L5.06055 3.87049L3.57684 2.3917Z" fill="#88BF57"/>
<path d="M1.88093 0.699219C2.16412 0.770301 2.7034 0.911073 3.34702 1.09645L3.36328 2.17941L1.88093 0.699219Z" fill="#88BF57"/>
<path d="M7.80586 6.59941L6.98203 5.77987L6.92919 2.3916C7.19835 2.51814 7.44842 2.68384 7.67172 2.8836C8.15577 3.36555 8.44 4.02129 8.465 4.71377C8.49 5.40625 8.25383 6.08187 7.80586 6.59941Z" fill="#88BF57"/>
<path d="M5.27817 4.08662L5.24023 1.69629C5.77003 1.88306 6.28086 2.08376 6.71039 2.28586L6.75781 5.56402L5.27817 4.08662Z" fill="#88BF57"/>
</svg>
