<svg width="99" height="186" viewBox="0 0 99 186" fill="none" xmlns="http://www.w3.org/2000/svg">
<g clip-path="url(#clip0_1711_35600)">
<rect x="65" y="78" width="34" height="85" fill="white"/>
<path d="M99 150.312V88.3438C91.5054 89.3392 84.6267 93.037 79.645 98.7485C74.6633 104.46 71.9185 111.795 71.9218 119.389C71.9478 126.961 74.7058 134.267 79.6848 139.953C84.6637 145.639 91.5261 149.32 99 150.312Z" fill="#C5E5ED"/>
<path d="M-7.62939e-06 49.0385V86.5624C-0.0261993 106.65 6.02903 126.271 17.3623 142.821C26.4531 156.139 38.6381 167.032 52.8629 174.555C67.0877 182.079 82.9236 186.008 99 186.001L99 154.375C90.4275 153.387 82.5174 149.263 76.7793 142.79C71.0412 136.317 67.877 127.948 67.8903 119.281C67.903 110.631 71.0787 102.287 76.814 95.8348C82.5494 89.3823 90.4447 85.2707 99 84.2813V49.0385C98.9967 36.0806 93.8888 23.6505 84.7918 14.4627C75.6948 5.27483 63.3479 0.0757793 50.4474 0.000899457H49.1036C42.668 -0.0382558 36.2884 1.20134 30.3317 3.64834C24.375 6.09534 18.9589 9.70143 14.3951 14.2591C9.83133 18.8167 6.20998 24.2359 3.73948 30.2048C1.26898 36.1737 -0.00189209 42.5744 -7.62939e-06 49.0385Z" fill="#C5E5ED"/>
<path d="M46.9404 9.5977V48.7414L28.6643 72.6055C22.4418 68.6392 17.6702 62.75 15.0677 55.8245C12.4653 48.8989 12.1728 41.3117 14.2342 34.2047C16.2956 27.0978 20.5995 20.8556 26.4981 16.4178C32.3966 11.9799 39.5706 9.58648 46.9404 9.5977ZM36.7004 46.9192C37.7636 46.9192 38.8028 46.6025 39.6868 46.0093C40.5708 45.416 41.2597 44.5728 41.6666 43.5862C42.0734 42.5996 42.1799 41.5141 41.9725 40.4667C41.7651 39.4194 41.2531 38.4574 40.5014 37.7023C39.7496 36.9472 38.7918 36.433 37.7491 36.2247C36.7064 36.0163 35.6256 36.1233 34.6434 36.5319C33.6612 36.9406 32.8217 37.6326 32.231 38.5205C31.6404 39.4083 31.3251 40.4522 31.3251 41.5201C31.3425 42.9465 31.9145 44.3097 32.9188 45.3185C33.9231 46.3272 35.2802 46.9017 36.7004 46.9192Z" fill="white"/>
<path d="M51.8589 9.5977C59.2287 9.58648 66.4028 11.9799 72.3013 16.4178C78.1998 20.8556 82.5037 27.0978 84.5652 34.2047C86.6266 41.3117 86.3341 48.8989 83.7316 55.8245C81.1292 62.75 76.3576 68.6392 70.135 72.6055L51.8589 48.7414V9.5977ZM62.3005 46.9192C63.3607 46.9059 64.3933 46.5779 65.2683 45.9766C66.1434 45.3753 66.8219 44.5275 67.2185 43.5399C67.615 42.5522 67.712 41.4688 67.497 40.426C67.2821 39.3831 66.7649 38.4274 66.0106 37.6791C65.2562 36.9307 64.2983 36.4232 63.2575 36.2203C62.2167 36.0173 61.1393 36.1281 60.161 36.5387C59.1827 36.9492 58.3472 37.6412 57.7594 38.5276C57.1717 39.4139 56.8581 40.4551 56.858 41.5201C56.8791 42.9571 57.4614 44.3282 58.4794 45.3381C59.4974 46.348 60.8697 46.9158 62.3005 46.9192Z" fill="white"/>
<path d="M52.3965 58.4734L49.2385 68.5833L46.0939 58.4734L49.2385 54.2891L52.3965 58.4734Z" fill="white"/>
<path d="M41.6052 140.81L47.5986 133.373H35.6117L41.6052 140.81Z" fill="#4F95BD"/>
<path d="M29.4967 140.81L35.4902 133.373H23.5033L29.4967 140.81Z" fill="#4F95BD"/>
<path d="M46.779 93.7967L52.7725 86.3594H40.7855L46.779 93.7967Z" fill="#4F95BD"/>
<path d="M34.8053 93.7967L40.7988 86.3594H28.8119L34.8053 93.7967Z" fill="#4F95BD"/>
<path d="M46.779 112.127L52.7725 104.689H40.7855L46.779 112.127Z" fill="#4F95BD"/>
<path d="M34.8053 112.127L40.7988 104.689H28.8119L34.8053 112.127Z" fill="#4F95BD"/>
<path d="M52.5973 102.962L58.5908 95.5244H46.6039L52.5973 102.962Z" fill="#4F95BD"/>
<path d="M14.7284 102.962L20.7354 95.5244H8.73495L14.7284 102.962Z" fill="#4F95BD"/>
<path d="M40.6237 102.962L46.6172 95.5244H34.6302L40.6237 102.962Z" fill="#4F95BD"/>
<path d="M40.4762 121.157L46.4697 113.72H34.4828L40.4762 121.157Z" fill="#4F95BD"/>
<path d="M28.5163 121.157L34.5098 113.72H22.5228L28.5163 121.157Z" fill="#4F95BD"/>
<path d="M16.4079 121.157L22.4014 113.72H10.4144L16.4079 121.157Z" fill="#4F95BD"/>
<path d="M52.1266 121.157L58.1201 113.72H46.1332L52.1266 121.157Z" fill="#4F95BD"/>
<path d="M47.0077 130.457L53.0146 123.02H41.0142L47.0077 130.457Z" fill="#4F95BD"/>
<path d="M35.0475 130.457L41.041 123.02H29.054L35.0475 130.457Z" fill="#4F95BD"/>
<path d="M22.9391 130.457L28.9326 123.02H16.9456L22.9391 130.457Z" fill="#4F95BD"/>
<path d="M58.6579 130.457L64.6514 123.02H52.6644L58.6579 130.457Z" fill="#4F95BD"/>
</g>
<defs>
<clipPath id="clip0_1711_35600">
<rect width="99" height="186" fill="white" transform="matrix(-1 0 0 1 99 0)"/>
</clipPath>
</defs>
</svg>
