<svg width="30" height="30" viewBox="0 0 30 30" fill="none" xmlns="http://www.w3.org/2000/svg">
<path fill-rule="evenodd" clip-rule="evenodd" d="M16.5517 28.5C16.5517 29.3284 15.8801 30 15.0517 30H14.9483C14.1198 30 13.4483 29.3284 13.4483 28.5V16.5517H1.5C0.671573 16.5517 0 15.8802 0 15.0517V14.9483C0 14.1198 0.671573 13.4483 1.5 13.4483H13.4483V1.5C13.4483 0.671573 14.1198 0 14.9483 0H15.0517C15.8802 0 16.5517 0.671573 16.5517 1.5V13.4483H28.5C29.3284 13.4483 30 14.1198 30 14.9483V15.0517C30 15.8802 29.3284 16.5517 28.5 16.5517H16.5517V28.5Z" fill="#007DB5"/>
</svg>
