<svg width="50" height="50" viewBox="0 0 50 50" fill="none" xmlns="http://www.w3.org/2000/svg">
<circle cx="25" cy="25" r="25" fill="white"/>
<path d="M11.95 39C11.95 37.4333 12.0667 36.0333 12.3 34.8C12.5333 33.5667 12.9333 32.45 13.5 31.45C14.0667 30.4167 14.8333 29.4667 15.8 28.6C16.7667 27.7333 17.9833 26.8833 19.45 26.05C21.0167 25.1833 22.3167 24.4667 23.35 23.9C24.4167 23.3333 25.25 22.8333 25.85 22.4C26.4833 21.9667 26.9333 21.5833 27.2 21.25C27.4667 20.8833 27.6 20.4667 27.6 20C27.6 19.0667 27.2667 18.3167 26.6 17.75C25.9333 17.1833 24.9833 16.9 23.75 16.9C22.35 16.9 21.1333 17.25 20.1 17.95C19.0667 18.6167 18.0667 19.5 17.1 20.6L12 14.7C12.5333 14.1 13.25 13.5167 14.15 12.95C15.05 12.3833 16.0667 11.8833 17.2 11.45C18.3333 10.9833 19.5667 10.6167 20.9 10.35C22.2667 10.0833 23.6833 9.95 25.15 9.95C28.75 9.95 31.5 10.7333 33.4 12.3C35.3333 13.8667 36.3 15.9833 36.3 18.65C36.3 19.75 36.1167 20.7333 35.75 21.6C35.4167 22.4667 34.9667 23.25 34.4 23.95C33.8333 24.6167 33.2 25.2167 32.5 25.75C31.8 26.25 31.0833 26.7167 30.35 27.15C29.85 27.45 29.25 27.8 28.55 28.2C27.85 28.6 27.15 29.0167 26.45 29.45C25.7833 29.85 25.15 30.2667 24.55 30.7C23.9833 31.1 23.55 31.4667 23.25 31.8H36.85V39H11.95Z" fill="#EEF5E9"/>
</svg>
