<svg width="24" height="24" viewBox="0 0 24 24" fill="none" xmlns="http://www.w3.org/2000/svg">
<path d="M16.9712 6.25125C16.7416 6.1235 16.4891 6.04226 16.2281 6.01217C15.9671 5.98209 15.7027 6.00375 15.4501 6.07591C15.1975 6.14807 14.9616 6.26933 14.7559 6.43274C14.5501 6.59615 14.3786 6.79851 14.2512 7.02825L10.5382 13.7102L8.41319 11.5852C8.22869 11.3942 8.008 11.2419 7.76399 11.137C7.51999 11.0322 7.25755 10.9771 6.99199 10.9747C6.72643 10.9724 6.46307 11.023 6.21728 11.1236C5.97148 11.2242 5.74818 11.3727 5.5604 11.5605C5.37261 11.7482 5.2241 11.9715 5.12354 12.2173C5.02298 12.4631 4.97238 12.7265 4.97468 12.992C4.97699 13.2576 5.03217 13.52 5.13698 13.7641C5.2418 14.0081 5.39417 14.2288 5.58519 14.4132L9.58519 18.4132C9.96319 18.7922 10.4732 19.0002 10.9992 19.0002L11.2762 18.9802C11.5827 18.9374 11.8751 18.8239 12.1304 18.6488C12.3857 18.4737 12.5968 18.2418 12.7472 17.9712L17.7472 8.97125C17.8748 8.7417 17.956 8.48925 17.9861 8.22833C18.0162 7.9674 17.9946 7.7031 17.9225 7.45052C17.8505 7.19794 17.7294 6.96203 17.5661 6.75626C17.4029 6.55049 17.2007 6.37888 16.9712 6.25125Z" fill="#007DB5"/>
</svg>
