<svg width="50" height="50" viewBox="0 0 50 50" fill="none" xmlns="http://www.w3.org/2000/svg">
<circle cx="25" cy="25" r="25" fill="white"/>
<path d="M34.23 30.52V37H14.79V30.52H21.18V19.045C20.91 19.405 20.49 19.78 19.92 20.17C19.35 20.53 18.705 20.875 17.985 21.205C17.295 21.505 16.575 21.76 15.825 21.97C15.105 22.15 14.46 22.24 13.89 22.24V15.58C14.37 15.58 14.985 15.415 15.735 15.085C16.515 14.755 17.28 14.365 18.03 13.915C18.78 13.435 19.455 12.955 20.055 12.475C20.655 11.995 21.03 11.605 21.18 11.305H28.515V30.52H34.23Z" fill="#C5E5ED"/>
</svg>
