<svg width="24" height="24" viewBox="0 0 24 24" fill="none" xmlns="http://www.w3.org/2000/svg">
<path d="M16.9722 6.25125C16.7426 6.1235 16.4901 6.04226 16.2291 6.01217C15.9681 5.98209 15.7037 6.00375 15.4511 6.07591C15.1985 6.14807 14.9626 6.26933 14.7568 6.43274C14.5511 6.59615 14.3796 6.79851 14.2522 7.02825L10.5392 13.7102L8.41416 11.5852C8.22967 11.3942 8.00898 11.2419 7.76497 11.137C7.52096 11.0322 7.25852 10.9771 6.99296 10.9747C6.72741 10.9724 6.46405 11.023 6.21825 11.1236C5.97246 11.2242 5.74916 11.3727 5.56137 11.5605C5.37359 11.7482 5.22508 11.9715 5.12452 12.2173C5.02396 12.4631 4.97335 12.7265 4.97566 12.992C4.97797 13.2576 5.03314 13.52 5.13796 13.7641C5.24278 14.0081 5.39514 14.2288 5.58616 14.4132L9.58616 18.4132C9.96416 18.7922 10.4742 19.0002 11.0002 19.0002L11.2772 18.9802C11.5837 18.9374 11.8761 18.8239 12.1314 18.6488C12.3866 18.4737 12.5978 18.2418 12.7482 17.9712L17.7482 8.97125C17.8758 8.7417 17.957 8.48925 17.9871 8.22833C18.0172 7.9674 17.9956 7.7031 17.9235 7.45052C17.8515 7.19794 17.7304 6.96203 17.5671 6.75626C17.4039 6.55049 17.2017 6.37888 16.9722 6.25125Z" fill="#007DB5"/>
</svg>
