<svg width="96" height="120" viewBox="0 0 96 120" fill="none" xmlns="http://www.w3.org/2000/svg">
<path d="M0 75.3542C0.00361633 84.6255 2.61103 93.7127 7.53018 101.598C12.4493 109.483 19.4859 115.855 27.8518 120H76.9136C77.5432 118.911 78.1481 117.785 78.642 116.647C80.2366 112.683 81.4759 108.588 82.3457 104.408C82.6667 100.835 82.6667 97.4691 82.6667 96.3309V96.1595C82.6698 87.1081 80.1306 78.2346 75.3335 70.533C70.5365 62.8314 63.671 56.6059 55.5062 52.5541C55.3269 52.5113 55.1596 52.4293 55.0166 52.314C54.8735 52.1988 54.7583 52.0532 54.6793 51.8881C54.6004 51.7229 54.5598 51.5423 54.5605 51.3596C54.5612 51.1768 54.6032 50.9965 54.6834 50.832C54.7636 50.6674 54.8799 50.5227 55.0239 50.4085C55.1678 50.2944 55.3357 50.2136 55.5153 50.1722C55.6948 50.1308 55.8815 50.1297 56.0615 50.1692C56.2415 50.2086 56.4103 50.2875 56.5555 50.4001C65.1358 54.6507 72.3516 61.1873 77.3934 69.2765C82.4351 77.3657 85.1034 86.6876 85.0988 96.1963V96.3676C85.0988 97.5914 84.8519 101.263 84.7407 105.155C84.7407 105.473 84.7407 105.546 84.7407 105.706C85.254 106.283 85.8793 106.751 86.5793 107.083C87.2792 107.416 88.0395 107.605 88.8148 107.639C88.9503 107.651 89.0867 107.651 89.2222 107.639C90.5759 107.645 91.894 107.21 92.9737 106.401C94.0534 105.591 94.8348 104.453 95.1975 103.16C95.2716 102.756 95.3457 102.364 95.4074 101.936C95.7051 100.137 95.9029 98.3229 96 96.5022C96 95.6333 96 94.7644 96 93.8832C96 72.5027 84.679 53.4964 65.6173 46.4104C64.7778 46.0677 64.0864 45.9575 63.3704 45.6271C59.1235 43.669 53.9383 40.1443 53.9383 35.2122C53.9409 34.3903 54.0236 33.5706 54.1852 32.7645C54.2716 32.3851 54.3704 32.0057 54.4815 31.6386C54.9549 29.7192 55.2034 27.7522 55.2222 25.7764C55.2222 25.6295 55.2222 25.4949 55.2222 25.348C55.2563 20.7164 54.0917 16.1534 51.8394 12.0952C49.5872 8.03703 46.3228 4.61923 42.358 2.16846L42.1358 2.03384L41.3086 1.5443L41.1975 1.48311C38.9523 0.274643 36.3842 -0.213559 33.8473 0.085818C31.3104 0.385195 28.9297 1.45741 27.0334 3.1546C25.1371 4.8518 23.8187 7.09039 23.2599 9.56169C22.7011 12.033 22.9295 14.6153 23.9136 16.9525C24.2186 17.4614 24.4828 17.9934 24.7037 18.5435C25.453 20.3422 25.8262 22.2729 25.8008 24.2188C25.7753 26.1647 25.3517 28.0852 24.5555 29.864C23.591 32.0121 22.112 33.8942 20.2469 35.3468L19.8642 35.6405C14.0495 40.0313 9.27003 45.6256 5.85863 52.034C2.44724 58.4425 0.48587 65.511 0.111107 72.7475C0.0246887 73.6164 0 74.4853 0 75.3542Z" fill="white"/>
<path d="M35.5182 110.932L41.0244 104.189H30.0121L35.5182 110.932Z" fill="#4F95BD"/>
<path d="M24.3962 110.932L29.9023 104.189H18.89L24.3962 110.932Z" fill="#4F95BD"/>
<path d="M40.2741 68.3032L45.7803 61.5476H34.7556L40.2741 68.3032Z" fill="#4F95BD"/>
<path d="M29.2751 68.3032L34.7812 61.5476H23.7689L29.2751 68.3032Z" fill="#4F95BD"/>
<path d="M40.2741 84.9253L45.7803 78.1697H34.7556L40.2741 84.9253Z" fill="#4F95BD"/>
<path d="M29.2751 84.9253L34.7812 78.1697H23.7689L29.2751 84.9253Z" fill="#4F95BD"/>
<path d="M56.7272 76.6159L62.2334 69.8604H51.2211L56.7272 76.6159Z" fill="#4F95BD"/>
<path d="M45.6042 76.6159L51.1104 69.8604H40.098L45.6042 76.6159Z" fill="#4F95BD"/>
<path d="M10.8268 76.6159L16.333 69.8604H5.32068L10.8268 76.6159Z" fill="#4F95BD"/>
<path d="M34.6169 76.6159L40.123 69.8604H29.1107L34.6169 76.6159Z" fill="#4F95BD"/>
<path d="M34.9128 59.9956L40.4189 53.24H29.4066L34.9128 59.9956Z" fill="#4F95BD"/>
<path d="M23.9147 59.9956L29.4209 53.24H18.4085L23.9147 59.9956Z" fill="#4F95BD"/>
<path d="M34.4821 93.1106L39.9883 86.3672H28.9759L34.4821 93.1106Z" fill="#4F95BD"/>
<path d="M23.4831 93.1106L28.9893 86.3672H17.9769L23.4831 93.1106Z" fill="#4F95BD"/>
<path d="M12.3594 93.1106L17.8779 86.3672H6.85324L12.3594 93.1106Z" fill="#4F95BD"/>
<path d="M45.1729 93.1106L50.6914 86.3672H39.6667L45.1729 93.1106Z" fill="#4F95BD"/>
<path d="M40.4821 101.544L45.9883 94.7881H34.9759L40.4821 101.544Z" fill="#4F95BD"/>
<path d="M29.4929 101.544L34.999 94.7881H23.9743L29.4929 101.544Z" fill="#4F95BD"/>
<path d="M18.3698 101.544L23.876 94.7881H12.8636L18.3698 101.544Z" fill="#4F95BD"/>
<path d="M51.1823 101.544L56.6885 94.7881H45.6761L51.1823 101.544Z" fill="#4F95BD"/>
<path d="M24.6795 5.29035H25.2598C24.0675 6.96439 23.3184 8.90841 23.0811 10.9441C22.8439 12.9797 23.126 15.0419 23.9017 16.9413C22.9354 15.2513 21.6328 13.7734 20.073 12.5974C18.5132 11.4214 16.7287 10.5718 14.8277 10.1001C15.9841 8.59914 17.4753 7.38392 19.1844 6.54951C20.8936 5.71509 22.7743 5.28413 24.6795 5.29035Z" fill="white"/>
<path d="M29.2806 10.6235C29.4114 11.3033 29.7598 11.9294 30.2792 12.4178C30.7986 12.9063 31.4642 13.2339 32.1869 13.3569C32.9096 13.4798 33.655 13.3922 34.3234 13.1058C34.9917 12.8193 35.5511 12.3477 35.9268 11.754C35.7959 11.0742 35.4475 10.4482 34.9282 9.95972C34.4088 9.47124 33.7432 9.14362 33.0205 9.02068C32.2978 8.89775 31.5523 8.98536 30.884 9.2718C30.2156 9.55825 29.6562 10.0299 29.2806 10.6235Z" fill="#4F95BD"/>
</svg>
