<svg width="84" height="88" viewBox="0 0 84 88" fill="none" xmlns="http://www.w3.org/2000/svg">
<path d="M20.4386 14.6442L22.7306 15.8754L20.6942 16.8806C20.6415 16.9064 20.5944 16.9424 20.5556 16.9865C20.5169 17.0305 20.4871 17.0818 20.4681 17.1374C20.4491 17.1929 20.4412 17.2517 20.4449 17.3103C20.4486 17.3689 20.4638 17.4262 20.4896 17.479C20.5154 17.5317 20.5514 17.5789 20.5954 17.6177C20.6394 17.6565 20.6906 17.6863 20.7461 17.7053C20.8016 17.7243 20.8602 17.7322 20.9188 17.7285C20.9773 17.7248 21.0346 17.7096 21.0872 17.6838L23.6955 16.3964L27.0348 18.1933C27.0743 19.4899 27.3609 20.767 27.8794 21.9558L23.7642 24.1198C23.6757 24.166 23.6052 24.2406 23.564 24.3316C23.5229 24.4227 23.5134 24.525 23.5372 24.622C23.561 24.7191 23.6166 24.8054 23.6952 24.867C23.7737 24.9287 23.8707 24.9621 23.9705 24.9621C24.0428 24.9623 24.1141 24.9445 24.1779 24.9104L28.2702 22.759C28.4536 23.0936 28.6556 23.4177 28.8752 23.7297L27.0176 26.5237C26.9851 26.5725 26.9625 26.6271 26.9511 26.6846C26.9397 26.7421 26.9398 26.8012 26.9513 26.8587C26.9628 26.9162 26.9855 26.9708 27.0181 27.0194C27.0507 27.0681 27.0926 27.1098 27.1414 27.1422C27.214 27.1918 27.2999 27.2182 27.3878 27.2179C27.4613 27.218 27.5337 27.1998 27.5985 27.165C27.6633 27.1301 27.7185 27.0797 27.7591 27.0183L29.4517 24.4721C30.4038 25.5894 31.586 26.4872 32.9172 27.104C34.2485 27.7207 35.6972 28.0418 37.164 28.0453H37.3141L42.0046 27.9902C42.4326 27.9447 42.8457 27.8068 43.2155 27.5862C43.5852 27.3655 43.9028 27.0672 44.1464 26.7119L44.8753 25.6528L46.1931 23.7343L46.8016 22.8496C46.8369 22.7983 46.8611 22.7402 46.8726 22.679C46.8841 22.6178 46.8827 22.5548 46.8684 22.4942C46.8542 22.4336 46.8274 22.3766 46.7899 22.3269C46.7523 22.2773 46.7048 22.2361 46.6504 22.2059C46.5502 22.1538 46.4343 22.1406 46.325 22.1688C46.2157 22.1969 46.1206 22.2645 46.0579 22.3585L45.1148 23.7354L43.5242 26.0407C43.4774 26.109 43.4125 26.163 43.3368 26.1964C43.2611 26.2299 43.1775 26.2415 43.0956 26.23C43.0271 26.2206 42.9619 26.195 42.9053 26.1554C42.8155 26.0939 42.7512 26.0016 42.7246 25.8959C42.698 25.7903 42.7109 25.6785 42.7609 25.5817L44.0215 23.7458L44.6552 22.8278C44.6667 22.8115 44.6766 22.7942 44.685 22.7762C44.7458 22.6748 44.7639 22.5535 44.7353 22.4388C44.7067 22.3241 44.6338 22.2255 44.5326 22.1646C44.4314 22.1037 44.3102 22.0856 44.1956 22.1142C44.0811 22.1428 43.9826 22.2159 43.9218 22.3172L43.2125 23.3499L42.926 23.7664L41.9931 25.1227C41.9838 25.1342 41.9761 25.1469 41.9702 25.1606L41.2609 26.1933C41.2143 26.2623 41.1493 26.3168 41.0734 26.3507C40.9974 26.3845 40.9135 26.3964 40.8311 26.3849C40.7627 26.3757 40.6974 26.3501 40.6409 26.3103C40.5437 26.243 40.4771 26.1399 40.4557 26.0236C40.4342 25.9073 40.4596 25.7872 40.5263 25.6895L40.6409 25.5232L41.8281 23.7894L42.4504 22.8852L42.565 22.7188C42.6289 22.6214 42.6523 22.5027 42.63 22.3883C42.6077 22.2738 42.5416 22.1726 42.4458 22.1064C42.3499 22.0401 42.232 22.014 42.1172 22.0337C42.0025 22.0534 41.8999 22.1172 41.8316 22.2116L40.7303 23.8181L38.5804 26.4778C36.7526 25.654 35.3832 24.5823 34.4618 23.2455L36.614 19.9328C36.6477 19.8837 36.6712 19.8283 36.6833 19.77C36.6953 19.7116 36.6955 19.6514 36.6839 19.593C36.6723 19.5346 36.6492 19.479 36.6158 19.4297C36.5825 19.3803 36.5396 19.3382 36.4897 19.3057C36.4398 19.2732 36.3839 19.251 36.3253 19.2405C36.2668 19.23 36.2067 19.2313 36.1486 19.2444C36.0906 19.2576 36.0357 19.2822 35.9873 19.3168C35.9389 19.3515 35.8979 19.3955 35.8668 19.4463L33.9507 22.3964C33.3273 21.1801 33.0191 19.7745 33.0191 18.1669C33.0191 18.1083 33.0075 18.0502 32.9851 17.9961C32.9627 17.9419 32.9299 17.8927 32.8885 17.8513C32.8471 17.8098 32.798 17.7769 32.7439 17.7545C32.6898 17.7321 32.6318 17.7205 32.5733 17.7205C32.5147 17.7205 32.4568 17.7321 32.4027 17.7545C32.3486 17.7769 32.2995 17.8098 32.2581 17.8513C32.2167 17.8927 32.1838 17.9419 32.1614 17.9961C32.139 18.0502 32.1275 18.1083 32.1275 18.1669C32.1275 22.0395 33.7456 24.8496 37.0609 26.7154C34.9236 26.6898 32.8685 25.8869 31.2788 24.4561C29.6891 23.0254 28.6733 21.0646 28.4208 18.9394C28.1683 16.8141 28.6964 14.6695 29.9066 12.9053C31.1168 11.1411 32.9264 9.87786 34.9981 9.35104C35.17 9.30768 35.3176 9.19772 35.4086 9.04537C35.4995 8.89302 35.5262 8.71074 35.4829 8.53865C35.4396 8.36656 35.3298 8.21874 35.1776 8.12771C35.0255 8.03669 34.8434 8.00991 34.6715 8.05328C32.8602 8.50928 31.2115 9.46126 29.91 10.8026C29.8607 10.5315 29.7743 10.2686 29.6534 10.0212L29.085 8.86567L28.0627 6.77388L27.5918 5.80887C27.5644 5.75288 27.5257 5.70324 27.478 5.66315C27.4303 5.62306 27.3748 5.59342 27.315 5.57612C27.2552 5.55882 27.1924 5.55426 27.1307 5.56273C27.0691 5.5712 27.0098 5.59251 26.9569 5.62528C26.8622 5.68732 26.7938 5.78224 26.7648 5.89176C26.7358 6.00128 26.7483 6.11766 26.7999 6.21851L27.531 7.71019L28.7641 10.2311C28.8004 10.3056 28.8153 10.3887 28.8072 10.4711C28.7991 10.5536 28.7683 10.6322 28.7182 10.6981C28.6752 10.7544 28.6193 10.7997 28.5553 10.8301C28.4913 10.8604 28.421 10.8751 28.3502 10.8729C28.2794 10.8706 28.2102 10.8515 28.1482 10.8172C28.0863 10.7828 28.0334 10.7341 27.994 10.6752L27.0176 8.67864L26.526 7.67347C26.5174 7.6555 26.5075 7.63824 26.4962 7.62184C26.4327 7.52948 26.3367 7.46445 26.2275 7.43969C26.1182 7.41494 26.0037 7.43227 25.9066 7.48824C25.8096 7.54421 25.7371 7.63472 25.7036 7.74176C25.6702 7.84879 25.6782 7.96452 25.7261 8.0659L26.2762 9.19155L26.4985 9.65053L27.217 11.1238C27.2228 11.1374 27.2297 11.1505 27.2376 11.1629L27.7889 12.2885C27.8146 12.3412 27.8297 12.3985 27.8333 12.4571C27.8369 12.5157 27.829 12.5744 27.8099 12.63C27.7909 12.6855 27.7611 12.7367 27.7223 12.7807C27.6835 12.8247 27.6364 12.8606 27.5837 12.8863C27.5311 12.9121 27.4738 12.9272 27.4153 12.9308C27.3568 12.9345 27.2982 12.9265 27.2427 12.9074C27.1873 12.8884 27.1361 12.8586 27.0922 12.8197C27.0483 12.7808 27.0124 12.7337 26.9867 12.6809L26.8973 12.4996L25.9736 10.6109L25.4912 9.62413L25.403 9.44169C25.3508 9.33518 25.2586 9.25376 25.1465 9.21535C25.0344 9.17694 24.9117 9.18468 24.8053 9.23687C24.699 9.28906 24.6176 9.38143 24.5793 9.49365C24.5409 9.60587 24.5487 9.72875 24.6008 9.83526L25.4568 11.5828L27.2067 16.0028C27.1319 16.3956 27.0806 16.7926 27.0532 17.1916L20.8649 13.864C20.8133 13.8362 20.7567 13.819 20.6984 13.8131C20.6402 13.8073 20.5813 13.813 20.5252 13.8299C20.4691 13.8469 20.4169 13.8747 20.3716 13.9119C20.3263 13.949 20.2887 13.9947 20.261 14.0464C20.2333 14.0981 20.2161 14.1547 20.2102 14.2131C20.2044 14.2714 20.2101 14.3304 20.227 14.3865C20.2439 14.4427 20.2717 14.495 20.3088 14.5403C20.3459 14.5857 20.3916 14.6234 20.4432 14.6511L20.4386 14.6442Z" fill="white"/>
<path d="M35.2794 7.36167C35.2571 7.36418 35.2348 7.36802 35.2129 7.37314C35.2519 7.37314 35.2909 7.36282 35.3276 7.35938L35.2794 7.36167Z" fill="white"/>
<path d="M35.5244 8.57185C35.5711 8.55909 35.6158 8.54018 35.6575 8.51562C35.6105 8.53284 35.5657 8.55234 35.5244 8.57185Z" fill="white"/>
<path d="M27.1659 61.9456C43.3939 61.9456 48.419 57.295 53.7375 52.3701L54.5786 51.5933C54.8926 51.3065 55.2112 51.0081 55.5366 50.7041C59.6128 46.8911 64.6895 42.1464 76.0334 42.3885L76.0541 41.4132C75.3795 41.3994 74.7186 41.4025 74.0715 41.4224V38.8211L75.2599 40.0121C75.3021 40.0565 75.3527 40.092 75.4088 40.1165C75.4649 40.1409 75.5253 40.1539 75.5865 40.1547C75.6477 40.1554 75.7084 40.1438 75.765 40.1207C75.8217 40.0976 75.8731 40.0633 75.9163 40.02C75.9596 39.9766 75.9937 39.925 76.0167 39.8683C76.0397 39.8115 76.0511 39.7507 76.0503 39.6894C76.0494 39.6282 76.0364 39.5677 76.0118 39.5116C75.9873 39.4555 75.9518 39.4048 75.9074 39.3627L74.0738 37.5268V36.5296L75.2622 37.7207C75.3039 37.7668 75.3545 37.8039 75.4109 37.8298C75.4674 37.8557 75.5285 37.8698 75.5906 37.8713C75.6527 37.8729 75.7144 37.8618 75.7721 37.8387C75.8297 37.8156 75.8821 37.781 75.926 37.7371C75.9699 37.6931 76.0044 37.6406 76.0275 37.5829C76.0505 37.5252 76.0617 37.4634 76.0601 37.4012C76.0586 37.339 76.0445 37.2779 76.0186 37.2213C75.9927 37.1648 75.9557 37.1141 75.9097 37.0724L74.0761 35.2365V34.2405L75.2645 35.4315C75.3067 35.4759 75.3573 35.5114 75.4134 35.5359C75.4695 35.5603 75.5299 35.5733 75.5911 35.574C75.6522 35.5748 75.7129 35.5632 75.7696 35.5401C75.8262 35.517 75.8777 35.4827 75.9209 35.4394C75.9642 35.396 75.9983 35.3444 76.0213 35.2876C76.0443 35.2309 76.0557 35.1701 76.0549 35.1088C76.054 35.0476 76.041 34.9871 76.0164 34.931C75.9919 34.8749 75.9563 34.8242 75.9119 34.7821L74.0784 32.9462V31.949L75.2668 33.1401C75.3085 33.1862 75.3591 33.2233 75.4155 33.2492C75.472 33.2751 75.5331 33.2892 75.5952 33.2907C75.6572 33.2923 75.719 33.2812 75.7766 33.2581C75.8343 33.235 75.8867 33.2004 75.9306 33.1564C75.9745 33.1125 76.009 33.06 76.0321 33.0023C76.0551 32.9446 76.0662 32.8828 76.0647 32.8206C76.0632 32.7584 76.0491 32.6972 76.0232 32.6407C75.9973 32.5842 75.9603 32.5335 75.9142 32.4918L74.0807 30.6559V29.6599L75.2691 30.8509C75.3112 30.8953 75.3619 30.9308 75.418 30.9552C75.4741 30.9797 75.5345 30.9927 75.5956 30.9934C75.6568 30.9942 75.7175 30.9826 75.7742 30.9595C75.8308 30.9364 75.8823 30.9021 75.9255 30.8587C75.9687 30.8154 76.0029 30.7638 76.0259 30.707C76.0489 30.6503 76.0603 30.5895 76.0594 30.5282C76.0586 30.467 76.0455 30.4065 76.021 30.3504C75.9964 30.2943 75.9609 30.2436 75.9165 30.2015L74.083 28.3655V26.3001C74.083 26.1784 74.0347 26.0617 73.9487 25.9756C73.8628 25.8895 73.7462 25.8412 73.6246 25.8412C73.503 25.8412 73.3864 25.8895 73.3005 25.9756C73.2145 26.0617 73.1662 26.1784 73.1662 26.3001V28.4011L71.3705 30.2015C71.3244 30.2431 71.2872 30.2937 71.2613 30.3502C71.2353 30.4067 71.2211 30.4679 71.2194 30.53C71.2178 30.5922 71.2288 30.654 71.2518 30.7118C71.2747 30.7696 71.3091 30.8221 71.353 30.8661C71.3968 30.9101 71.4491 30.9448 71.5067 30.968C71.5643 30.9912 71.6261 31.0024 71.6881 31.001C71.7502 30.9996 71.8114 30.9855 71.8679 30.9597C71.9244 30.9339 71.975 30.8969 72.0168 30.8509L73.1628 29.7035V30.6995L71.367 32.5009C71.3199 32.5423 71.2817 32.593 71.2549 32.6497C71.2281 32.7064 71.2132 32.7681 71.2111 32.8308C71.209 32.8936 71.2198 32.9561 71.2428 33.0145C71.2658 33.0729 71.3005 33.1259 71.3448 33.1703C71.3891 33.2148 71.442 33.2496 71.5003 33.2728C71.5586 33.2959 71.621 33.3068 71.6836 33.3048C71.7463 33.3029 71.8079 33.288 71.8646 33.2613C71.9213 33.2345 71.972 33.1964 72.0134 33.1493L73.1593 32.0018V32.9989L71.3602 34.774C71.3141 34.8157 71.2769 34.8663 71.251 34.9228C71.225 34.9793 71.2108 35.0404 71.2091 35.1026C71.2075 35.1648 71.2185 35.2266 71.2414 35.2844C71.2644 35.3421 71.2988 35.3946 71.3427 35.4387C71.3865 35.4827 71.4388 35.5174 71.4964 35.5406C71.554 35.5638 71.6157 35.575 71.6778 35.5736C71.7399 35.5721 71.801 35.5581 71.8575 35.5323C71.914 35.5065 71.9647 35.4695 72.0065 35.4235L73.1525 34.2761V35.272L71.3567 37.0735C71.3096 37.1149 71.2714 37.1655 71.2446 37.2223C71.2178 37.279 71.2029 37.3407 71.2008 37.4034C71.1987 37.4661 71.2095 37.5286 71.2325 37.587C71.2555 37.6454 71.2902 37.6985 71.3345 37.7429C71.3788 37.7873 71.4317 37.8222 71.49 37.8453C71.5483 37.8685 71.6107 37.8794 71.6733 37.8774C71.736 37.8754 71.7976 37.8606 71.8543 37.8338C71.911 37.8071 71.9616 37.769 72.0031 37.7218L73.149 36.5744V37.5715L71.3533 39.3719C71.3072 39.4135 71.2701 39.4641 71.2441 39.5206C71.2181 39.5771 71.2039 39.6383 71.2023 39.7004C71.2006 39.7626 71.2116 39.8244 71.2346 39.8822C71.2575 39.94 71.292 39.9925 71.3358 40.0365C71.3796 40.0805 71.4319 40.1152 71.4895 40.1384C71.5472 40.1616 71.6089 40.1728 71.6709 40.1714C71.733 40.17 71.7942 40.1559 71.8507 40.1301C71.9072 40.1043 71.9578 40.0673 71.9996 40.0213L73.1456 38.8739V41.4751C71.0127 41.5822 68.8985 41.9286 66.8428 42.5078V39.5245L68.1469 40.8314C68.189 40.8758 68.2397 40.9113 68.2958 40.9357C68.3519 40.9602 68.4123 40.9732 68.4734 40.9739C68.5346 40.9747 68.5953 40.9631 68.652 40.94C68.7086 40.9169 68.7601 40.8826 68.8033 40.8392C68.8465 40.7959 68.8807 40.7443 68.9037 40.6875C68.9267 40.6308 68.9381 40.57 68.9373 40.5087C68.9364 40.4475 68.9233 40.387 68.8988 40.3309C68.8742 40.2747 68.8387 40.2241 68.7943 40.182L66.9631 38.3197C66.9291 38.2873 66.8904 38.2603 66.8485 38.2393V37.2066L68.1526 38.5136C68.1943 38.5596 68.2449 38.5968 68.3014 38.6227C68.3578 38.6486 68.4189 38.6627 68.481 38.6642C68.5431 38.6658 68.6048 38.6546 68.6625 38.6316C68.7201 38.6085 68.7725 38.5739 68.8164 38.5299C68.8603 38.486 68.8949 38.4335 68.9179 38.3758C68.941 38.3181 68.9521 38.2563 68.9505 38.1941C68.949 38.1319 68.9349 38.0707 68.909 38.0142C68.8832 37.9577 68.8461 37.907 68.8001 37.8653L66.9631 36.0248C66.9293 35.9924 66.8907 35.9657 66.8485 35.9456V34.9129L68.1526 36.2198C68.1948 36.2642 68.2454 36.2997 68.3015 36.3242C68.3576 36.3486 68.418 36.3616 68.4792 36.3623C68.5404 36.3631 68.6011 36.3515 68.6577 36.3284C68.7144 36.3053 68.7658 36.271 68.8091 36.2277C68.8523 36.1843 68.8864 36.1327 68.9094 36.0759C68.9324 36.0192 68.9438 35.9584 68.943 35.8971C68.9421 35.8359 68.9291 35.7754 68.9045 35.7193C68.88 35.6632 68.8445 35.6125 68.8001 35.5704L66.9631 33.7299C66.929 33.6979 66.8904 33.6712 66.8485 33.6507V32.618L68.1526 33.9249C68.1943 33.971 68.2449 34.0081 68.3014 34.034C68.3578 34.0599 68.4189 34.0741 68.481 34.0756C68.5431 34.0771 68.6048 34.066 68.6625 34.0429C68.7201 34.0198 68.7725 33.9853 68.8164 33.9413C68.8603 33.8973 68.8949 33.8449 68.9179 33.7872C68.941 33.7294 68.9521 33.6676 68.9505 33.6055C68.949 33.5433 68.9349 33.4821 68.909 33.4256C68.8832 33.369 68.8461 33.3184 68.8001 33.2766L66.9596 31.4315C66.9259 31.3992 66.8872 31.3725 66.8451 31.3524V30.3197L68.1492 31.6266C68.1913 31.671 68.242 31.7064 68.2981 31.7309C68.3541 31.7554 68.4146 31.7684 68.4757 31.7691C68.5369 31.7698 68.5976 31.7583 68.6543 31.7352C68.7109 31.712 68.7624 31.6778 68.8056 31.6344C68.8488 31.5911 68.883 31.5395 68.906 31.4827C68.929 31.4259 68.9404 31.3651 68.9395 31.3039C68.9387 31.2426 68.9256 31.1822 68.9011 31.126C68.8765 31.0699 68.841 31.0193 68.7966 30.9771L66.9562 29.132C66.9225 29.0997 66.8838 29.073 66.8416 29.0529V28.0202L68.1457 29.3271C68.1879 29.3715 68.2385 29.407 68.2946 29.4314C68.3507 29.4559 68.4111 29.4689 68.4723 29.4696C68.5335 29.4704 68.5942 29.4588 68.6508 29.4357C68.7075 29.4125 68.759 29.3783 68.8022 29.3349C68.8454 29.2916 68.8795 29.24 68.9025 29.1832C68.9255 29.1265 68.9369 29.0657 68.9361 29.0044C68.9353 28.9431 68.9222 28.8827 68.8977 28.8266C68.8731 28.7704 68.8376 28.7198 68.7932 28.6777L66.9528 26.8337C66.919 26.8014 66.8803 26.7746 66.8382 26.7545V24.4355C66.8382 24.3138 66.7899 24.1971 66.7039 24.111C66.618 24.0249 66.5014 23.9766 66.3798 23.9766C66.2582 23.9766 66.1416 24.0249 66.0557 24.111C65.9697 24.1971 65.9214 24.3138 65.9214 24.4355V26.7924C65.8967 26.8093 65.8737 26.8285 65.8526 26.8498L64.0122 28.6937C63.9678 28.7359 63.9323 28.7865 63.9078 28.8426C63.8832 28.8987 63.8701 28.9592 63.8693 29.0205C63.8685 29.0817 63.8799 29.1425 63.9029 29.1993C63.9259 29.2561 63.96 29.3076 64.0032 29.351C64.0465 29.3944 64.0979 29.4286 64.1546 29.4517C64.2112 29.4749 64.2719 29.4864 64.3331 29.4857C64.3943 29.485 64.4547 29.472 64.5108 29.4475C64.5669 29.423 64.6175 29.3876 64.6597 29.3432L65.9203 28.081V29.0907C65.8953 29.1069 65.8723 29.1257 65.8515 29.147L64.0111 30.9921C63.9667 31.0342 63.9312 31.0848 63.9066 31.141C63.8821 31.1971 63.869 31.2575 63.8682 31.3188C63.8673 31.3801 63.8787 31.4409 63.9017 31.4976C63.9247 31.5544 63.9589 31.606 64.0021 31.6493C64.0453 31.6927 64.0968 31.727 64.1534 31.7501C64.2101 31.7732 64.2708 31.7848 64.332 31.784C64.3931 31.7833 64.4536 31.7703 64.5096 31.7458C64.5657 31.7214 64.6164 31.6859 64.6585 31.6415L65.9191 30.3793V31.3879C65.8944 31.4048 65.8714 31.424 65.8503 31.4453L64.0099 33.2904C63.9309 33.3777 63.8885 33.4921 63.8914 33.6099C63.8943 33.7277 63.9423 33.8398 64.0255 33.9231C64.1087 34.0064 64.2207 34.0545 64.3383 34.0574C64.456 34.0603 64.5702 34.0178 64.6574 33.9387L65.918 32.6765V33.6863C65.8933 33.7027 65.8703 33.7216 65.8492 33.7425L64.0088 35.5876C63.9644 35.6297 63.9289 35.6804 63.9043 35.7365C63.8798 35.7926 63.8667 35.8531 63.8659 35.9143C63.865 35.9756 63.8765 36.0364 63.8995 36.0932C63.9225 36.1499 63.9566 36.2015 63.9998 36.2449C64.043 36.2882 64.0945 36.3225 64.1511 36.3456C64.2078 36.3687 64.2685 36.3803 64.3297 36.3796C64.3908 36.3788 64.4513 36.3658 64.5074 36.3414C64.5634 36.3169 64.6141 36.2814 64.6562 36.237L65.9168 34.9748V35.9835C65.8921 36.0003 65.8691 36.0195 65.8481 36.0408L64.0076 37.8859C63.9286 37.9732 63.8862 38.0876 63.8891 38.2054C63.892 38.3232 63.94 38.4353 64.0232 38.5186C64.1064 38.602 64.2184 38.65 64.336 38.6529C64.4537 38.6558 64.5679 38.6133 64.6551 38.5342L65.9157 37.272V38.2818C65.8907 38.2983 65.8676 38.3176 65.8469 38.3392L64.0065 40.1831C63.9621 40.2253 63.9266 40.2759 63.902 40.332C63.8775 40.3881 63.8644 40.4486 63.8636 40.5099C63.8627 40.5711 63.8742 40.6319 63.8972 40.6887C63.9202 40.7455 63.9543 40.797 63.9975 40.8404C64.0407 40.8838 64.0922 40.918 64.1488 40.9411C64.2055 40.9643 64.2662 40.9758 64.3274 40.9751C64.3886 40.9744 64.449 40.9614 64.5051 40.9369C64.5611 40.9124 64.6118 40.8769 64.654 40.8326L65.9145 39.5704V42.727C65.9151 42.7497 65.9174 42.7723 65.9214 42.7947C64.7749 43.1704 63.6591 43.6346 62.5843 44.1831C61.3036 44.8413 60.082 45.6091 58.9333 46.478V42.4619L60.1217 43.653C60.2084 43.7354 60.3238 43.7805 60.4434 43.7789C60.5629 43.7773 60.6771 43.7289 60.7615 43.6442C60.846 43.5595 60.894 43.4451 60.8954 43.3254C60.8969 43.2057 60.8515 43.0902 60.7691 43.0035L58.9356 41.1676V40.1705L60.1239 41.3615C60.2111 41.4406 60.3254 41.4832 60.443 41.4803C60.5606 41.4774 60.6726 41.4293 60.7559 41.346C60.8391 41.2626 60.8871 41.1505 60.89 41.0327C60.8929 40.9149 60.8504 40.8005 60.7714 40.7132L58.9379 38.8773V37.8813L60.1262 39.0724C60.213 39.1547 60.3284 39.1999 60.4479 39.1983C60.5675 39.1967 60.6816 39.1483 60.7661 39.0636C60.8505 38.9789 60.8986 38.8645 60.9 38.7448C60.9014 38.6251 60.8561 38.5096 60.7737 38.4229L58.9402 36.587V35.5899L60.1285 36.7809C60.2157 36.86 60.33 36.9025 60.4476 36.8996C60.5652 36.8967 60.6772 36.8487 60.7604 36.7653C60.8436 36.682 60.8917 36.5699 60.8946 36.4521C60.8975 36.3343 60.855 36.2199 60.776 36.1326L58.9424 34.2967V33.3007L60.1308 34.4918C60.2176 34.5741 60.333 34.6193 60.4525 34.6177C60.5721 34.616 60.6862 34.5677 60.7707 34.483C60.8551 34.3983 60.9032 34.2839 60.9046 34.1642C60.906 34.0445 60.8607 33.929 60.7783 33.8423L58.9447 32.0064V29.941C58.9447 29.8193 58.8964 29.7025 58.8105 29.6164C58.7245 29.5304 58.6079 29.482 58.4864 29.482C58.3648 29.482 58.2482 29.5304 58.1622 29.6164C58.0763 29.7025 58.028 29.8193 58.028 29.941V32.0087L56.2322 33.809C56.1878 33.8512 56.1523 33.9018 56.1278 33.9579C56.1032 34.0141 56.0902 34.0745 56.0893 34.1358C56.0885 34.197 56.0999 34.2578 56.1229 34.3146C56.1459 34.3714 56.18 34.423 56.2233 34.4663C56.2665 34.5097 56.3179 34.5439 56.3746 34.5671C56.4312 34.5902 56.4919 34.6017 56.5531 34.601C56.6143 34.6003 56.6747 34.5873 56.7308 34.5628C56.7869 34.5383 56.8375 34.5029 56.8797 34.4585L58.0257 33.311V34.3036L56.2299 36.1051C56.1509 36.1924 56.1085 36.3068 56.1114 36.4246C56.1143 36.5423 56.1623 36.6545 56.2455 36.7378C56.3287 36.8211 56.4407 36.8692 56.5583 36.8721C56.676 36.875 56.7902 36.8325 56.8774 36.7534L58.0234 35.6059V36.5985L56.2276 38.3988C56.1833 38.441 56.1477 38.4916 56.1232 38.5477C56.0987 38.6039 56.0856 38.6643 56.0847 38.7256C56.0839 38.7868 56.0953 38.8476 56.1183 38.9044C56.1413 38.9612 56.1754 39.0128 56.2187 39.0561C56.2619 39.0995 56.3134 39.1337 56.37 39.1569C56.4267 39.18 56.4874 39.1915 56.5485 39.1908C56.6097 39.1901 56.6701 39.1771 56.7262 39.1526C56.7823 39.1281 56.8329 39.0927 56.8751 39.0483L58.0211 37.9008V38.8968L56.2254 40.6983C56.1464 40.7856 56.1039 40.9 56.1068 41.0178C56.1097 41.1356 56.1577 41.2477 56.2409 41.331C56.3241 41.4144 56.4361 41.4624 56.5538 41.4653C56.6714 41.4682 56.7856 41.4257 56.8728 41.3466L58.0188 40.1992V41.1963L56.2231 42.9967C56.1787 43.0388 56.1432 43.0894 56.1186 43.1456C56.0941 43.2017 56.081 43.2621 56.0802 43.3234C56.0793 43.3847 56.0907 43.4455 56.1137 43.5022C56.1367 43.559 56.1709 43.6106 56.2141 43.6539C56.2573 43.6973 56.3088 43.7315 56.3654 43.7547C56.4221 43.7778 56.4828 43.7894 56.544 43.7886C56.6051 43.7879 56.6656 43.7749 56.7216 43.7504C56.7777 43.726 56.8284 43.6905 56.8705 43.6461L58.0165 42.4987V47.0322C58.0171 47.0807 58.0257 47.1288 58.0417 47.1745C56.8682 48.1246 55.8266 49.0965 54.8491 50.0098C54.5274 50.3158 54.2107 50.6103 53.899 50.8934C53.6148 51.1535 53.3333 51.4136 53.0545 51.6736C49.0367 55.3925 45.1908 58.9508 36.2591 60.3575L35.457 58.9267V48.8567L35.4432 48.8486H40.4408V51.0288L40.1073 51.3868L38.1706 53.3317L39.3166 56.9771L42.4451 52.2428C42.6687 51.9534 42.7896 51.5977 42.7889 51.2319V48.0408C42.789 47.8418 42.75 47.6446 42.6741 47.4607C42.5981 47.2767 42.4868 47.1095 42.3463 46.9687C42.2058 46.8278 42.039 46.716 41.8554 46.6397C41.6718 46.5634 41.475 46.5241 41.2762 46.5239H38.3952C38.7631 46.3431 39.1111 46.1243 39.4335 45.871C39.7239 45.6495 39.9992 45.4088 40.2574 45.1504C40.2276 45.1814 40.1978 45.2135 40.1669 45.2434C40.8265 44.6096 41.3919 43.8842 41.8457 43.0896C41.8606 43.0632 41.8755 43.0368 41.8916 43.0104L41.989 42.8326C42.2993 42.263 42.5548 41.6651 42.7522 41.0471C42.7373 41.0919 42.7247 41.1366 42.7098 41.1802C42.7751 40.9909 42.837 40.797 42.8943 40.5962C43.4249 38.7454 43.2484 36.2508 42.9012 33.5096C43.7871 33.2436 44.5767 32.7253 45.1736 32.0179C45.2587 31.9245 45.3541 31.8409 45.4578 31.7689C45.5048 31.7379 45.5518 31.7092 45.6011 31.6817C45.9368 31.5007 46.3255 31.4439 46.6989 31.521L46.7253 31.5268C46.8323 31.5493 46.9414 31.5605 47.0507 31.56C47.3223 31.5608 47.5896 31.4931 47.8282 31.3632C48.0668 31.2334 48.2689 31.0456 48.416 30.817C48.5631 30.5885 48.6505 30.3266 48.67 30.0554C48.6896 29.7842 48.6407 29.5125 48.5279 29.2651H48.5416C48.4376 29.0343 48.281 28.831 48.0844 28.6716C47.8878 28.5122 47.6566 28.4011 47.4094 28.3472H32.8556C32.8556 28.3472 33.267 30.5434 35.3195 30.5434C35.8592 30.5434 36.5582 30.3896 36.8516 30.1659C36.0334 33.1493 34.7889 36.8372 33.5111 37.3948C32.8831 37.6702 31.3338 37.7631 29.4292 37.7895L21.4739 37.8056L12.47 37.8171H12.3256C12.3633 37.9927 12.4138 38.1653 12.4769 38.3334C12.6773 38.9032 13.0099 39.4172 13.4475 39.8331C13.9634 40.3007 14.6345 40.5596 15.3303 40.5595H15.6329C15.3217 41.214 15.1604 41.9298 15.1607 42.6547V44.6559C15.1526 44.9278 15.1207 45.1984 15.0656 45.4648C14.8128 46.622 14.1505 47.6486 13.2011 48.3552C12.4402 48.929 11.0673 49.1343 11.0696 50.3174L10.9894 59.2606L11.7148 60.8991C9.98094 60.8865 8.71923 60.8785 7.96289 60.8785V61.8538C8.75246 61.8538 10.1013 61.863 11.9738 61.8767C15.5733 61.9066 21.0189 61.9456 27.1659 61.9456ZM42.9172 40.4769C43.134 39.5398 43.2314 38.579 43.2072 37.6174C43.2314 38.579 43.134 39.5398 42.9172 40.4769C42.8806 40.6214 42.8404 40.7626 42.8026 40.9026C42.8404 40.7626 42.8806 40.6214 42.9172 40.4769ZM39.7887 29.8825C39.7935 29.7561 39.847 29.6366 39.9381 29.5491C40.0292 29.4615 40.1507 29.4128 40.2769 29.4132C40.371 29.4152 40.4624 29.445 40.5396 29.4989C40.6169 29.5527 40.6765 29.6282 40.7111 29.7159C40.7456 29.8035 40.7536 29.8994 40.7339 29.9916C40.7142 30.0837 40.6678 30.168 40.6005 30.2339C40.5331 30.2997 40.4479 30.3442 40.3554 30.3617C40.2629 30.3792 40.1673 30.369 40.0806 30.3323C39.9939 30.2956 39.92 30.2341 39.8681 30.1555C39.8161 30.0769 39.7885 29.9847 39.7887 29.8905V29.8825ZM13.3638 53.7012C13.3664 53.3414 13.4934 52.9936 13.7232 52.717C13.9531 52.4405 14.2715 52.2522 14.6244 52.1843H14.637C14.8914 52.1338 15.1424 52.0695 15.3876 52.0007L15.5286 51.9571C15.9674 51.822 16.395 51.6528 16.8075 51.451C16.9221 51.396 17.0367 51.3363 17.1421 51.2801C17.2258 51.2353 17.3071 51.1906 17.3896 51.1435C17.4721 51.0965 17.5294 51.0598 17.5982 51.0185C18.3646 50.5513 19.0594 49.9754 19.6609 49.3088C19.7457 49.2147 19.826 49.1206 19.9073 49.0242C20.1678 48.7108 20.4071 48.3804 20.6236 48.0351H33.039V60.7304C31.2639 60.8865 29.3169 60.9703 27.1659 60.9703C25.1123 60.9703 23.1367 60.9703 21.2825 60.9588L19.8237 58.3839V53.6266C19.8248 53.3157 19.9211 53.0126 20.0995 52.7582C20.278 52.5038 20.5301 52.3103 20.8218 52.2038C22.6882 51.5178 24.2334 50.1617 25.157 48.3988H20.7828C20.5664 48.7445 20.3271 49.0753 20.0666 49.3891C19.9852 49.4855 19.9039 49.5796 19.8202 49.6736C19.2961 50.282 18.6769 50.8013 17.9867 51.2112C17.9179 51.2525 17.5661 51.4487 17.4825 51.4935V59.4442L18.0658 60.9496L14.7722 60.9244L13.3638 58.4229V53.7012Z" fill="white"/>
<path d="M67.4779 6.32796L68.5356 5.01758H66.4224H66.419H64.3047L65.3636 6.32796L66.4201 5.01987L67.4779 6.32796Z" fill="white"/>
<path d="M66.419 8.36133H64.3047L65.3636 9.67286L66.4201 8.36362L67.4779 9.67286L68.5356 8.36133H66.4224H66.419Z" fill="white"/>
<path d="M66.5352 11.7051H64.4209L65.4798 13.0178L66.5364 11.7074L67.5929 13.0178L68.6518 11.7051H66.5386H66.5352Z" fill="white"/>
<path d="M49.3208 7.17382C49.5486 7.17382 49.7333 6.98888 49.7333 6.76074C49.7333 6.5326 49.5486 6.34766 49.3208 6.34766C49.0929 6.34766 48.9082 6.5326 48.9082 6.76074C48.9082 6.98888 49.0929 7.17382 49.3208 7.17382Z" fill="white"/>
<path d="M49.3208 4.41991C49.5486 4.41991 49.7333 4.23497 49.7333 4.00683C49.7333 3.77869 49.5486 3.59375 49.3208 3.59375C49.0929 3.59375 48.9082 3.77869 48.9082 4.00683C48.9082 4.23497 49.0929 4.41991 49.3208 4.41991Z" fill="white"/>
<path d="M47.9458 5.79687C48.1736 5.79687 48.3583 5.61192 48.3583 5.38378C48.3583 5.15565 48.1736 4.9707 47.9458 4.9707C47.7179 4.9707 47.5332 5.15565 47.5332 5.38378C47.5332 5.61192 47.7179 5.79687 47.9458 5.79687Z" fill="white"/>
<path d="M47.9458 3.04491C48.1736 3.04491 48.3583 2.85997 48.3583 2.63183C48.3583 2.40369 48.1736 2.21875 47.9458 2.21875C47.7179 2.21875 47.5332 2.40369 47.5332 2.63183C47.5332 2.85997 47.7179 3.04491 47.9458 3.04491Z" fill="white"/>
<path d="M47.9458 8.55077C48.1736 8.55077 48.3583 8.36583 48.3583 8.13769C48.3583 7.90955 48.1736 7.72461 47.9458 7.72461C47.7179 7.72461 47.5332 7.90955 47.5332 8.13769C47.5332 8.36583 47.7179 8.55077 47.9458 8.55077Z" fill="white"/>
<path d="M48.5986 9.95411C49.1358 9.95448 49.6576 9.77427 50.0804 9.44234V15.8876C50.0804 16.5266 50.3339 17.1395 50.7852 17.5914C51.2365 18.0433 51.8486 18.2972 52.4869 18.2972C53.1251 18.2972 53.7373 18.0433 54.1886 17.5914C54.6399 17.1395 54.8934 16.5266 54.8934 15.8876V15.1245C55.2305 15.3939 55.6339 15.5672 56.0612 15.6259C56.1694 15.6412 56.2785 15.6488 56.3878 15.6489H56.4072C56.7981 15.6465 57.1822 15.5476 57.5257 15.3609C57.5957 15.3239 57.6634 15.2829 57.7285 15.2381C57.787 15.1991 57.8431 15.1555 57.897 15.1119V17.6489C57.8972 18.1445 58.0198 18.6324 58.2539 19.069C58.488 19.5057 58.8264 19.8775 59.2389 20.1515C59.3134 20.2008 59.3891 20.2467 59.4681 20.2892C59.8228 20.4807 60.2127 20.5979 60.6141 20.6334C60.6902 20.6417 60.7667 20.6459 60.8433 20.646H60.8937C60.9917 20.6463 61.0896 20.6413 61.1871 20.6311C61.5459 20.5971 61.8955 20.4975 62.2185 20.3374C62.2964 20.2983 62.3732 20.2559 62.4476 20.2111C62.8879 19.9432 63.2518 19.5663 63.5045 19.1168C63.7572 18.6672 63.8901 18.1601 63.8904 17.6443V15.0625C64.2193 15.426 64.6205 15.7164 65.0682 15.9152C65.5159 16.114 66.0003 16.2167 66.4901 16.2167C66.9798 16.2167 67.4642 16.114 67.9119 15.9152C68.3596 15.7164 68.7608 15.426 69.0897 15.0625V16.4762C69.0897 16.498 69.0897 16.5209 69.0897 16.5427C69.0897 16.646 69.0977 16.7481 69.108 16.8491C69.1422 17.1641 69.2193 17.473 69.3372 17.7671C69.3613 17.8279 69.3865 17.8887 69.4163 17.9484C69.4271 17.9754 69.4393 18.0018 69.453 18.0275C69.4747 18.0746 69.4988 18.1205 69.5229 18.1652C69.6859 18.4598 69.8892 18.7301 70.1268 18.9685C70.168 19.0086 70.2288 19.0671 70.2918 19.1211L70.3182 19.1429C70.5672 19.3591 70.8463 19.5381 71.1467 19.6741C71.2063 19.7017 71.2613 19.7269 71.3278 19.751C71.3427 19.7567 71.3587 19.7636 71.3747 19.7682C71.4504 19.7969 71.5283 19.8233 71.6039 19.8463C71.9142 19.9388 72.2359 19.9875 72.5597 19.9908H72.6044C72.7006 19.9908 72.798 19.9908 72.8943 19.9782C72.9665 19.9725 73.0398 19.9644 73.112 19.953C73.2738 19.9312 73.4336 19.8966 73.5899 19.8497C74.1547 19.6827 74.6689 19.3773 75.0861 18.9612C75.5033 18.545 75.8103 18.0313 75.9792 17.4664C76.026 17.3098 76.0613 17.1498 76.0847 16.988C76.0961 16.9134 76.1042 16.8388 76.1099 16.7642C76.1179 16.6678 76.1225 16.5703 76.1225 16.4739V7.34481C76.1223 7.15647 76.107 6.96844 76.0766 6.78256C76.0682 6.72978 76.0591 6.677 76.0491 6.62421C75.9548 6.16925 75.7714 5.73752 75.5094 5.35399C75.4934 5.32989 75.4762 5.3058 75.459 5.28285C75.4246 5.23466 75.3879 5.18761 75.3444 5.14056C75.3341 5.12794 75.3237 5.11417 75.3123 5.10155C75.2404 5.01412 75.1639 4.93061 75.0831 4.85141C74.9038 4.6725 74.706 4.51325 74.4929 4.37636C74.4116 4.32358 74.3325 4.27654 74.2546 4.23638C73.8748 4.03069 73.4595 3.89908 73.0307 3.84854C72.9167 3.83306 72.8019 3.82387 72.6869 3.821H72.5998C72.1098 3.82094 71.6252 3.92374 71.1774 4.12277C70.7295 4.32179 70.3283 4.61262 69.9996 4.97648V3.56168C69.9996 2.62802 69.6292 1.7326 68.9698 1.0724C68.3105 0.412203 67.4162 0.0413081 66.4837 0.0413081C65.5513 0.0413081 64.657 0.412203 63.9977 1.0724C63.3383 1.7326 62.9679 2.62802 62.9679 3.56168V5.31842C62.8079 5.16361 62.6315 5.02664 62.4419 4.90993C62.3674 4.86403 62.2906 4.82157 62.2127 4.78371C62.0297 4.69263 61.8377 4.62109 61.6397 4.57028C61.4894 4.53064 61.3361 4.50339 61.1814 4.48881C61.0839 4.47864 60.986 4.47366 60.888 4.4739H60.8376C60.761 4.47399 60.6845 4.47821 60.6084 4.48652C60.207 4.52206 59.817 4.63919 59.4624 4.83075C59.3833 4.87321 59.3077 4.92025 59.2332 4.96959C59.0746 5.07526 58.9265 5.19591 58.7909 5.32989V2.40964C58.789 1.77112 58.5349 1.15928 58.084 0.707774C57.6331 0.256272 57.022 0.00181656 56.3843 0H56.3511C56.2502 9.4992e-05 56.1495 0.00776615 56.0497 0.0229489C55.6858 0.0724527 55.3385 0.206444 55.0355 0.414229C54.9713 0.456684 54.9083 0.503729 54.8487 0.551922C54.59 0.768447 54.3786 1.036 54.2276 1.33792C54.1907 1.41259 54.1578 1.4892 54.1291 1.56741C54.0285 1.8368 53.9768 2.12204 53.9766 2.40964V4.99828C53.5555 4.66103 53.0329 4.47625 52.4937 4.47396C51.9544 4.47167 51.4303 4.652 51.0063 4.98566V2.4521C51.0063 1.81226 50.7524 1.19863 50.3006 0.746194C49.8487 0.293761 49.2359 0.0395869 48.5969 0.0395869C47.9579 0.0395869 47.345 0.293761 46.8932 0.746194C46.4413 1.19863 46.1875 1.81226 46.1875 2.4521V7.53873C46.1878 8.17904 46.4419 8.79305 46.894 9.24592C47.346 9.69879 47.9591 9.9535 48.5986 9.95411ZM69.0874 12.6908C69.0872 12.9234 69.056 13.1549 68.9946 13.3792H65.457L66.5158 14.6919L67.5701 13.385L68.4181 14.4349C68.0701 14.8238 67.6131 15.0987 67.1067 15.2238C66.6004 15.3489 66.0682 15.3185 65.5793 15.1365C65.0905 14.9545 64.6677 14.6293 64.3661 14.2033C64.0644 13.7773 63.8979 13.2703 63.8881 12.7481V10.5565L64.5196 11.3448L65.5509 10.0711L66.5823 11.3448L67.6389 10.0356L68.6955 11.3448L69.0897 10.8571L69.0874 12.6908ZM75.2034 16.4773C75.2035 16.6045 75.194 16.7315 75.1748 16.8572C75.1579 16.9763 75.1323 17.0941 75.098 17.2094C75.0579 17.3465 75.0065 17.4801 74.9444 17.6087L73.7331 18.8193C73.6029 18.8828 73.4676 18.9354 73.3286 18.9765C73.2162 19.0104 73.1012 19.0353 72.9848 19.0511C72.6968 19.0955 72.4032 19.0893 72.1173 19.0327L75.2114 15.9346L75.2034 16.4773ZM75.2034 15.6156L71.8538 18.9685C71.7896 18.9501 71.7243 18.9271 71.6589 18.9019C71.3975 18.8003 71.1548 18.6561 70.9404 18.475L75.2034 14.202V15.6156ZM75.2034 13.8807L70.7697 18.3247C70.565 18.1209 70.3958 17.8844 70.2689 17.6248C70.246 17.5789 70.2242 17.5318 70.2047 17.4837L75.2034 12.4728V13.8807ZM70.0374 6.92714C70.1258 6.38911 70.3802 5.8923 70.7649 5.50644C71.1497 5.12058 71.6455 4.86503 72.1826 4.77568L70.0374 6.9237V6.92714ZM70.003 7.34825C70.003 7.32645 70.003 7.3058 70.003 7.284L72.5413 4.73896H72.6663C72.7525 4.74068 72.8386 4.74719 72.9241 4.75846C73.1949 4.79058 73.4588 4.86613 73.7056 4.98222L70.003 8.69077V7.34825ZM70.003 9.01894L73.9165 5.09352C73.944 5.10958 73.9727 5.12794 74.0036 5.1486C74.1619 5.25016 74.3087 5.36866 74.4414 5.50201C74.5077 5.56749 74.5697 5.63725 74.627 5.71085L74.6362 5.72117L74.6625 5.7556L70.003 10.4246V9.01894ZM70.003 10.7516L74.7955 5.94722C74.9652 6.21145 75.0849 6.50474 75.1484 6.8124C75.1564 6.85026 75.1633 6.88698 75.169 6.92714L75.1759 6.97304L70.003 12.1572V10.7516ZM70.003 12.4854L75.2023 7.27367C75.2023 7.29891 75.2023 7.32301 75.2023 7.34711V8.67929L70.0019 13.891L70.003 12.4854ZM70.003 14.2192L75.2034 9.00632V10.4108L70.003 15.6236V14.2192ZM70.003 15.9518L75.2034 10.739V12.148L70.1188 17.245C70.0414 16.9965 70.0028 16.7376 70.0042 16.4773L70.003 15.9518ZM66.4872 0.955824C67.1531 0.955542 67.7934 1.21242 68.2749 1.67298H64.6983C65.1803 1.21245 65.821 0.955602 66.4872 0.955824ZM64.5448 1.83018L65.4753 2.97763L66.5307 1.67068L67.5862 2.97763L68.4743 1.87837C68.8221 2.29065 69.0328 2.80125 69.0771 3.33907H63.8962C63.944 2.77918 64.1715 2.24983 64.5448 1.83018ZM63.887 3.99312L64.421 4.65519L65.4764 3.34825L66.5319 4.65519L67.585 3.34825L68.645 4.65634L69.0931 4.10212V6.68962H68.0342L69.0931 8V10.0333H63.8881V7.47677C63.8881 7.46415 63.8881 7.45267 63.8881 7.4412L64.3396 8.00115L65.3962 6.69191L66.454 8.00115L67.5128 6.68962H63.887V3.99312ZM62.4454 6.0918C62.7779 6.46495 62.9646 6.94575 62.9714 7.44579V12.6908C62.9714 12.7103 62.9714 12.7286 62.9714 12.747V17.6489C62.9717 18.1594 62.784 18.6521 62.4442 19.0327L62.4454 6.0918ZM61.6432 5.53299C61.851 5.61403 62.0444 5.72793 62.2162 5.87034V19.2542C62.0444 19.3966 61.851 19.5105 61.6432 19.5915V5.53299ZM60.841 5.393H60.8914C60.9896 5.39287 61.0876 5.39977 61.1848 5.41366V19.712C61.0876 19.7259 60.9896 19.7328 60.8914 19.7327H60.841V5.393ZM59.4658 5.95984C59.7807 5.66088 60.1817 5.46895 60.6118 5.41136V19.7131C60.1817 19.6556 59.7807 19.4636 59.4658 19.1647V5.95984ZM57.8305 13.6099L54.8934 10.6655V9.25531L57.881 12.2501V13.2335C57.8817 13.3605 57.8659 13.487 57.834 13.6099H57.8305ZM57.8787 11.9243L54.8934 8.93058V7.52267L57.881 10.5175L57.8787 11.9243ZM56.3889 14.7309C55.9933 14.7294 55.6144 14.571 55.3351 14.2903C55.0559 14.0097 54.8991 13.6297 54.8992 13.2335V12.7229L56.8358 14.6632C56.6912 14.7084 56.5405 14.7313 56.3889 14.7309ZM57.0616 14.5691L54.8934 12.3982V10.9891L57.748 13.8497C57.6067 14.1595 57.3647 14.4123 57.0616 14.5668V14.5691ZM58.8138 7.47677C58.8134 7.02055 58.9632 6.57693 59.2401 6.21458V18.9099C58.9632 18.5476 58.8133 18.104 58.8138 17.6477V7.47677ZM56.3889 0.912221C56.6617 0.912229 56.9293 0.987246 57.1624 1.12909L57.6621 1.63052C57.8043 1.86416 57.8792 2.1326 57.8787 2.4062V3.25416L55.7013 1.07401C55.914 0.96494 56.15 0.909408 56.3889 0.912221ZM55.5065 1.20252L57.8821 3.58348V4.99254L54.9393 2.0436C55.025 1.70576 55.2256 1.40836 55.5065 1.20252ZM54.8934 2.40964C54.8934 2.38095 54.8934 2.35341 54.8934 2.32588L57.8787 5.31727V6.72404L54.8934 3.73035V2.40964ZM54.8934 4.05508L57.881 7.04992V8.45669L54.8934 5.46414V4.05508ZM57.881 8.78256V10.1916L54.8934 7.19794V5.78887L57.881 8.78256ZM53.3464 5.66724C53.5413 5.80569 53.7003 5.9889 53.8099 6.20152C53.9196 6.41414 53.9768 6.64998 53.9766 6.88927V15.8876C53.9768 16.1269 53.9194 16.3629 53.8093 16.5754C53.6992 16.7879 53.5396 16.9707 53.3441 17.1084L53.3464 5.66724ZM51.8566 5.5307C52.0537 5.43743 52.2689 5.38905 52.4869 5.38905C52.7049 5.38905 52.9201 5.43743 53.1172 5.5307V17.2347C52.9202 17.3283 52.7049 17.3769 52.4869 17.3769C52.2689 17.3769 52.0536 17.3283 51.8566 17.2347V5.5307ZM51.6274 5.66151V17.1142C51.4294 16.9769 51.2675 16.7936 51.1558 16.5799C51.044 16.3663 50.9856 16.1287 50.9857 15.8876V7.80953C50.9966 7.71967 51.0024 7.62925 51.0029 7.53873V6.67814C51.0325 6.47443 51.1038 6.27902 51.2123 6.1041C51.3207 5.92919 51.464 5.77852 51.6331 5.66151H51.6274ZM47.1008 2.4521C47.1023 2.05694 47.2598 1.6784 47.5388 1.39899C47.8179 1.11957 48.196 0.961925 48.5906 0.960414C48.7231 0.960643 48.8549 0.978784 48.9825 1.01434C48.9479 1.06035 48.9232 1.11312 48.9102 1.16925C48.8972 1.22538 48.8961 1.28361 48.907 1.3402C48.9179 1.39678 48.9405 1.45045 48.9734 1.49773C49.0062 1.54502 49.0487 1.58487 49.0979 1.61472C49.1471 1.64457 49.202 1.66374 49.2591 1.67101C49.3162 1.67827 49.3742 1.67346 49.4293 1.65689C49.4844 1.64032 49.5355 1.61236 49.5791 1.57481C49.6227 1.53726 49.658 1.49096 49.6827 1.4389C49.9407 1.71487 50.0845 2.07864 50.0849 2.45669V6.61848C50.0744 6.70836 50.069 6.79877 50.0689 6.88927V7.74642C50.0221 8.12541 49.8319 8.472 49.5375 8.71479C49.2432 8.95758 48.867 9.07807 48.4865 9.05145C48.1061 9.02483 47.7503 8.85312 47.4925 8.57169C47.2347 8.29026 47.0945 7.92056 47.1008 7.53873V2.4521Z" fill="white"/>
<path d="M54.32 75.2195C54.3887 74.951 54.4552 74.663 54.5182 74.3601V74.2052L53.5602 73.9849V70.0698C53.5602 68.6148 53.0652 68.1191 51.5697 68.1191H48.5443C48.0607 68.1191 48.0275 68.5391 48.0275 69.5856H48.6658L47.851 73.9746L46.6855 74.1731L46.7577 74.6779C46.8256 75.1525 46.9404 75.6191 47.1004 76.071C47.1918 76.3525 47.3164 76.6222 47.4717 76.8742C47.6482 77.1277 47.8017 77.2482 48.0985 77.2482C48.4068 77.2313 48.7108 77.1682 49.0004 77.0612C48.804 76.461 48.6508 75.8474 48.542 75.2253H52.6148C52.506 75.8474 52.3528 76.461 52.1564 77.0612C52.446 77.1682 52.75 77.2313 53.0583 77.2482C53.3551 77.2482 53.5098 77.1335 53.6851 76.8742C53.8948 76.5678 54.1149 75.9769 54.3131 75.2218L54.32 75.2195ZM51.9261 73.7531H49.6341L50.2621 69.5844H51.1525C51.6911 69.5844 51.9226 69.8059 51.9226 70.3349L51.9261 73.7531Z" fill="white"/>
<path d="M4.91391 68.0879H1.7052C1.2216 68.0879 1.18837 68.5067 1.18837 69.5543H1.87022L1.45194 72.8154C1.3637 73.4327 1.08982 73.8481 0.517978 73.8481C0.341593 73.8516 0.166048 73.8228 0 73.7632L0 74.501C0 75.0299 0.550065 75.295 1.17576 75.295C2.11087 75.295 2.87982 74.7328 3.03452 73.466L3.46312 69.5543H4.34207C5.07893 69.5543 5.37345 69.8182 5.37345 70.5021V75.2285C6.81278 75.2285 7.01104 75.2285 7.01104 74.3908V70.3323C7.01333 68.75 6.56296 68.0879 4.91391 68.0879Z" fill="white"/>
<path d="M15.1702 75.1859V75.0528L12.4004 67.9902C11.8275 68.012 11.0917 68.1222 10.5428 68.3976C10.6196 68.6076 10.5646 68.9266 10.3778 69.3018C9.42477 71.1926 8.63389 73.161 8.01367 75.1859H9.82774L10.1796 73.9512H12.9299L13.3482 75.1859H15.1702ZM10.6081 72.6179C10.905 71.7481 11.2464 70.8772 11.6086 70.0614L12.4772 72.6179H10.6081Z" fill="white"/>
<path d="M22.4916 74.3908V70.0386C22.4916 68.5847 21.9965 68.0879 20.5022 68.0879H17.8309C16.4352 68.0879 16.1934 68.0879 16.1934 68.9255V75.1849H17.8309V69.5543H20.0839C20.6225 69.5543 20.854 69.7746 20.854 70.3036V75.2285C22.283 75.2285 22.4916 75.2285 22.4916 74.3908Z" fill="white"/>
<path d="M30.4606 70.3338C30.4606 68.748 30.0102 68.0859 28.3611 68.0859H25.1524C24.6688 68.0859 24.6356 68.5048 24.6356 69.5524H25.3232L24.9049 72.8134C24.8178 73.4307 24.5428 73.8461 23.9709 73.8461C23.7947 73.8484 23.6196 73.8185 23.4541 73.7578V74.4956C23.4541 75.0246 24.0042 75.2896 24.6299 75.2896C25.565 75.2896 26.3339 74.7274 26.4886 73.4606L26.9172 69.5489H27.7962C28.533 69.5489 28.8276 69.8128 28.8276 70.4967V75.2231C30.2669 75.2231 30.4651 75.2231 30.4651 74.3854L30.4606 70.3338Z" fill="white"/>
<path d="M38.6195 75.0528L35.8497 67.9902C35.2767 68.012 34.541 68.1222 33.992 68.3976C34.0688 68.6076 34.0138 68.9266 33.827 69.3018C32.874 71.1926 32.0831 73.161 31.4629 75.1859H33.277L33.6288 73.9512H36.3791L36.7974 75.1859H38.6195V75.0528ZM34.0574 72.6179C34.3542 71.7481 34.6957 70.8772 35.0578 70.0614L35.9264 72.6179H34.0574Z" fill="white"/>
<path d="M44.2255 75.2291C45.6556 75.2291 45.8642 75.2291 45.8642 74.3915V68.0885H44.2255V71.0719H41.2803V68.0449C39.8513 68.0449 39.6416 68.0449 39.6416 68.8826V75.1855H41.2803V72.5291H44.2255V75.2291Z" fill="white"/>
<path d="M60.1345 70.8097C60.8049 70.8097 61.2335 70.446 61.2335 69.8183C61.2335 68.695 60.0795 67.9824 58.5622 67.9824C56.3631 67.9824 54.957 69.349 54.957 71.4316C54.957 73.8011 56.2646 75.2997 58.5737 75.2997C59.8698 75.2997 61.002 74.8591 61.002 73.9446V73.4856C60.4046 73.7419 59.7623 73.8768 59.1123 73.8826C57.5286 73.8826 56.6599 72.9348 56.6599 71.4362C56.6599 70.1913 57.4415 69.3433 58.529 69.3433C59.3644 69.3433 59.7827 69.8275 59.7827 70.5768V70.8189L60.1345 70.8097Z" fill="white"/>
<path d="M68.6199 74.4471V74.2176H68.4664C68.0596 74.2176 67.7788 74.0627 67.4992 73.6439L66.3016 71.9698C67.3892 71.0105 67.0373 69.1379 68.4446 69.1379H68.5878V68.9084C68.5878 68.3026 68.236 67.9824 67.5106 67.9824C65.323 67.9824 66.2237 71.1127 64.5976 71.1127H64.004V68.049C62.5749 68.049 62.3652 68.049 62.3652 68.8866V75.1895H64.004V72.5194H64.7844L65.9601 74.4035C66.4002 75.1195 66.7073 75.2962 67.3777 75.2962C68.0481 75.2962 68.6199 75.0094 68.6199 74.4471Z" fill="white"/>
<path d="M71.3573 72.706V68.0451C69.9615 68.0451 69.7529 68.0451 69.7529 68.8827V74.9229C70.2476 75.1526 70.7809 75.2873 71.3252 75.3199L74.5339 70.6039V75.2315C75.94 75.2315 76.1383 75.2315 76.1383 74.3939V68.3755C75.6486 68.1433 75.1185 68.0084 74.5775 67.9785L71.3573 72.706Z" fill="white"/>
<path d="M80.9426 67.6047C82.1081 67.6047 82.8335 66.9438 82.8335 66.0947C82.8335 65.6357 82.5149 65.4785 82.053 65.4785C82.053 66.1498 81.4927 66.4481 80.9426 66.4481C80.3925 66.4481 79.8333 66.1498 79.8333 65.4785C79.3486 65.4785 79.0518 65.6323 79.0518 66.0947C79.0518 66.9438 79.7886 67.6047 80.9426 67.6047Z" fill="white"/>
<path d="M82.439 67.9785L79.2176 72.706V68.0451C77.8218 68.0451 77.6133 68.0451 77.6133 68.8827V74.9229C78.1084 75.152 78.6422 75.2858 79.1867 75.3176L82.3954 70.6016V75.2292C83.8015 75.2292 83.9998 75.2292 83.9998 74.3916V68.3755C83.5101 68.1433 82.98 68.0084 82.439 67.9785Z" fill="white"/>
<path d="M17.0434 81.8603C17.0434 80.9779 16.3375 80.3262 15.1651 80.3262C14.5474 80.3262 13.8862 80.5396 13.5344 80.9745C13.3553 81.1822 13.258 81.4482 13.2605 81.7226C13.2568 81.7879 13.2668 81.8533 13.2897 81.9145C13.3127 81.9757 13.3482 82.0314 13.394 82.0781C13.4397 82.1248 13.4947 82.1613 13.5554 82.1855C13.6161 82.2096 13.6812 82.2208 13.7464 82.2183H14.0295V82.1999H14.0467V81.9796C14.0534 81.7878 14.1267 81.6044 14.2541 81.461C14.3613 81.3474 14.4915 81.2579 14.6359 81.1986C14.7804 81.1392 14.9358 81.1113 15.0918 81.1168C15.7232 81.1168 16.1358 81.4472 16.1358 81.9613C16.1359 82.1024 16.1068 82.242 16.0502 82.3711C15.9936 82.5003 15.9107 82.6163 15.8069 82.7117C15.5181 82.9768 15.0528 83.1512 14.4317 83.1822L14.4248 83.1994H14.4145C14.3179 83.4276 14.2831 83.6774 14.3137 83.9234C15.3668 83.9234 16.0257 84.0886 16.0257 84.7404C16.0282 84.8475 16.0082 84.9539 15.9669 85.0528C15.9256 85.1516 15.8641 85.2406 15.7862 85.3141C15.58 85.4989 15.2557 85.6033 14.8351 85.6033C14.3685 85.6025 13.9081 85.4958 13.4886 85.2912V85.3153L13.4714 85.3072V85.5826C13.4714 86.2068 14.0661 86.4363 14.9176 86.4363C15.5112 86.4363 16.0636 86.2527 16.4383 85.9005C16.5952 85.7573 16.7197 85.5821 16.8035 85.3868C16.8873 85.1915 16.9285 84.9805 16.9242 84.7679C16.9242 84.0657 16.5071 83.6526 15.8103 83.4587C16.072 83.3573 16.3123 83.2074 16.5185 83.0169C16.6828 82.8723 16.8145 82.6945 16.905 82.4951C16.9955 82.2957 17.0427 82.0793 17.0434 81.8603Z" fill="white"/>
<path d="M19.901 80.629C19.9651 80.8034 19.9285 81.0157 19.7864 81.2911C18.9602 82.9144 18.2617 84.5997 17.6973 86.3318H18.6599C18.7871 85.9096 18.9154 85.4781 19.0621 85.0467H21.7746L22.241 86.3318H23.2036V86.2171L20.8762 80.3398C20.5327 80.3568 20.1983 80.4559 19.901 80.629ZM19.3417 84.2744C19.6821 83.3521 20.0703 82.4482 20.5049 81.5665L21.5042 84.2744H19.3417Z" fill="white"/>
<path d="M27.7604 80.418H25.1671C24.4795 80.418 24.334 80.418 24.334 80.8586V86.3319H25.1671V81.2269H27.6229C28.118 81.2269 28.3185 81.4289 28.3185 81.897V86.3721C29.0244 86.3721 29.1436 86.3721 29.1436 85.9315V81.7869C29.1436 80.7748 28.7952 80.418 27.7604 80.418Z" fill="white"/>
<path d="M33.2199 80.3262C31.5708 80.3262 30.4443 81.3922 30.4443 83.1948C30.4443 84.9974 31.5983 86.418 33.2199 86.418C34.8598 86.418 36.0149 85.0135 36.0149 83.1948C36.0149 81.3761 34.8873 80.3262 33.2199 80.3262ZM33.2199 85.6251C32.1026 85.6251 31.3336 84.6153 31.3336 83.2005C31.3336 81.8878 32.075 81.0984 33.2199 81.0984C34.3842 81.0984 35.1348 81.8511 35.1348 83.2005C35.1348 84.6612 34.3567 85.6251 33.2199 85.6251Z" fill="white"/>
<path d="M40.2295 83.3749C40.8529 83.1271 41.2459 82.6681 41.2459 81.9337C41.2459 80.8035 40.1836 80.418 39.1396 80.418H38.1404C37.4264 80.418 37.3164 80.418 37.3164 80.9779V84.8081C37.3164 85.9188 37.8023 86.3319 38.8188 86.3319H39.0778C40.1676 86.3319 41.2666 85.7811 41.2666 84.652C41.2643 83.9074 40.8437 83.5493 40.2295 83.3749ZM38.1404 81.1718H39.0296C39.7344 81.1718 40.3578 81.4013 40.3578 82.0806C40.3578 82.714 39.8352 83.0996 38.8004 83.0996H38.1404V81.1718ZM39.0388 85.5608H38.8646C38.342 85.5608 38.1404 85.2946 38.1404 84.7897V83.7788H38.9104C39.6611 83.7788 40.3853 83.9165 40.3853 84.6062C40.3853 85.3313 39.6427 85.5608 39.0388 85.5608Z" fill="white"/>
<path d="M43.3988 84.8627V83.8426H45.6254V83.0899H43.3988V81.2173H46.1193C46.1193 80.6837 46.1193 80.4141 45.8076 80.4141H43.4011C42.7055 80.4141 42.5771 80.4141 42.5771 80.8547V84.9602C42.5771 85.97 42.9335 86.328 43.9603 86.328H46.1766V85.5248H44.0956C43.6005 85.5328 43.3988 85.3309 43.3988 84.8627Z" fill="white"/>
<path d="M57.8463 83.0808H54.7591V80.3809C54.0715 80.3809 53.9248 80.3809 53.9248 80.8215V86.3292H54.7591V83.8611H57.8463V86.3682C58.5511 86.3682 58.6703 86.3682 58.6703 85.9276V80.4199H57.8463V83.0808Z" fill="white"/>
<path d="M61.0341 84.9548V80.3811C60.3557 80.3811 60.209 80.381 60.209 80.8217V86.1573C60.4526 86.3047 60.7274 86.3928 61.0112 86.4143L64.2634 81.7775V86.3673C64.9682 86.3673 65.0874 86.3673 65.0874 85.9267V80.6105C64.8467 80.4614 64.5733 80.3732 64.2909 80.3535L61.0341 84.9548Z" fill="white"/>
<path d="M70.1591 85.231L68.996 83.6693C70.2508 82.9992 69.8108 81.0715 71.0931 81.0715H71.2398V80.8959C71.2398 80.492 71.0209 80.3359 70.6267 80.3359C68.8951 80.3359 69.7649 83.1093 68.0517 83.1093H67.4661V80.3818C66.7785 80.3818 66.6318 80.3818 66.6318 80.8225V86.3302H67.4661V83.8896H68.1537L69.4463 85.7358C69.8681 86.3417 70.1431 86.4243 70.5281 86.4243C70.8582 86.4243 71.2512 86.2591 71.2512 85.8506V85.6853H71.1045C70.7275 85.6899 70.4433 85.6073 70.1591 85.231Z" fill="white"/>
<path d="M52.0745 81.7846C52.0745 80.7748 51.7169 80.418 50.6924 80.418H48.2549C47.9524 80.418 47.9524 80.683 47.9524 81.2212H48.4658L47.8103 84.7197L47.6315 85.6744L46.7617 85.8305C46.7602 86.2012 46.8171 86.5699 46.9302 86.9228C47.0148 87.2085 47.1329 87.4831 47.282 87.741C47.3966 87.9062 47.4826 87.9991 47.6384 87.9991C47.7961 87.9843 47.9507 87.9456 48.0968 87.8844C47.9316 87.3799 47.8164 86.8602 47.753 86.3331H51.7215C51.6581 86.8602 51.543 87.3799 51.3777 87.8844C51.5238 87.9457 51.6784 87.9844 51.8361 87.9991C51.992 87.9991 52.0836 87.9062 52.1936 87.741C52.3495 87.5 52.55 86.9905 52.7128 86.3273C52.7437 86.2126 52.7724 86.0806 52.7987 85.951V85.8362L52.0836 85.6802L52.0745 81.7846ZM51.2505 85.523H48.6148L48.7374 84.7197L49.2772 81.2246H50.5606C51.0546 81.2246 51.2562 81.4266 51.2562 81.8959L51.2505 85.523Z" fill="white"/>
<path d="M76.0338 45.651C75.2093 45.5477 74.3792 45.496 73.5482 45.4961C63.7307 45.4961 55.5748 52.6275 53.9521 62.0056H76.0338V45.651ZM69.5247 49.4686L70.5355 50.7216H68.5128L69.5247 49.4686ZM67.4815 49.4686L68.4933 50.7216H66.4661L67.4815 49.4686ZM64.8171 52.2672L65.829 53.5213H63.8063L64.8171 52.2672ZM64.6406 55.0337L65.6502 56.2844L66.6598 55.0337L67.6705 56.2867H65.6513H63.6287L64.6406 55.0337ZM60.5781 55.0337L61.5877 56.2844L62.5973 55.0337L63.6092 56.2867H61.59H59.5674L60.5781 55.0337ZM57.5826 59.4663L58.5933 58.2144L59.6052 59.4663H57.5826ZM63.5531 59.4663H61.5304L62.5423 58.2144L63.5519 59.4651L64.5615 58.2144L65.5723 59.4663H63.5531ZM67.6155 59.4663H65.5929L66.6036 58.2144L67.6132 59.4651L68.6228 58.2144L69.6347 59.4663H67.6155ZM69.9762 56.2867L70.987 55.0337L71.9989 56.2867H69.9762ZM69.9762 53.5213H67.9559L68.9678 52.2672L69.9774 53.519L70.987 52.2672L71.9989 53.5213H69.9762ZM72.0161 59.4663L73.0268 58.2144L74.0387 59.4663H72.0161ZM72.0161 56.2867L73.0268 55.0337L74.0387 56.2867H72.0161ZM72.0161 53.5213L73.0268 52.2672L74.0387 53.5213H72.0161ZM72.0161 50.7216L73.0268 49.4686L74.0387 50.7216H72.0161Z" fill="white"/>
</svg>
